<?xml version="1.0" encoding="utf-8"?>
<!-- Generator: Adobe Illustrator 25.0.0, SVG Export Plug-In . SVG Version: 6.00 Build 0)  -->
<svg version="1.1" id="Layer_1" xmlns:sketch="http://www.bohemiancoding.com/sketch/ns"
	 xmlns="http://www.w3.org/2000/svg" xmlns:xlink="http://www.w3.org/1999/xlink" x="0px" y="0px" viewBox="0 0 200 200"
	 style="enable-background:new 0 0 200 200;" xml:space="preserve">
<style type="text/css">
	.st0{fill-rule:evenodd;clip-rule:evenodd;fill:#FFFFFF;}
	.st1{fill-rule:evenodd;clip-rule:evenodd;fill:#00F2E6;}
	.st2{fill-rule:evenodd;clip-rule:evenodd;fill:#00B9F1;}
	.st3{fill-rule:evenodd;clip-rule:evenodd;fill:#D63AFF;}
	.st4{fill-rule:evenodd;clip-rule:evenodd;fill:#FB015B;}
</style>
<desc>Created with Sketch.</desc>
<g id="Page-1" sketch:type="MSPage">
	<g id="jwt_logo" transform="translate(-250.000000, 0.000000)" sketch:type="MSLayerGroup">
		<g id="Group" sketch:type="MSShapeGroup">
			<g transform="translate(250.000000, 0.000000)">
				<g id="Shape" transform="translate(50.000000, 50.000000)">
					<path class="st0" d="M65,3.8V-50H35V3.8l15,20.6L65,3.8z"/>
					<path class="st0" d="M35,96.2V150h30V96.2L50,75.6L35,96.2z"/>
					<path class="st1" d="M65,96.2l31.6,43.6L121,122L89.2,78.6l-24.2-8V96.2z"/>
					<path class="st1" d="M35,3.8L3.4-39.8L-21-22l31.8,43.4l24.2,8V3.8z"/>
					<path class="st2" d="M10.8,21.4L-40.4,4.8l-9.4,28.6L1.4,50l24.4-7.8L10.8,21.4z"/>
					<path class="st2" d="M74.2,57.8l15,20.8l51.2,16.6l9.4-28.6L98.6,50L74.2,57.8z"/>
					<path class="st3" d="M98.6,50l51.2-16.6l-9.4-28.6L89.2,21.4l-15,20.8L98.6,50z"/>
					<path class="st3" d="M1.4,50l-51.2,16.6l9.4,28.6l51.2-16.6l15-20.8L1.4,50z"/>
					<path class="st4" d="M10.8,78.6L-21,122l24.4,17.8L35,96.2V70.6L10.8,78.6z"/>
					<path class="st4" d="M89.2,21.4L121-22L96.6-39.8L65,3.8v25.6L89.2,21.4z"/>
				</g>
			</g>
		</g>
	</g>
</g>
</svg>
