<?xml version="1.0" encoding="utf-8"?>
<svg version="1.1" id="Layer_1" xmlns="http://www.w3.org/2000/svg" xmlns:xlink="http://www.w3.org/1999/xlink" x="0px" y="0px"
	 viewBox="0 0 130.4 290.6" style="enable-background:new 0 0 130.4 290.6;" xml:space="preserve">
<style type="text/css">
	.st0{fill:#10AA50;}
	.st1{fill:#B8C4C2;}
	.st2{fill:#12924F;}
</style>
<path class="st0" d="M128.1,115.6c-15.3-67.5-47.2-85.5-55.4-98.2C69.4,11.8,66.4,6,63.8,0c-0.4,6-1.2,9.8-6.3,14.3
	C47.3,23.5,3.8,58.9,0.1,135.6c-3.4,71.6,52.6,115.7,60,120.2c5.7,2.8,12.6,0.1,16-2.5C103.1,234.8,140,185.4,128.1,115.6"/>
<path class="st1" d="M66.1,217.8c-1.4,17.7-2.4,28-6,38.1c0,0,2.3,16.9,4,34.7H70c1.4-12.6,3.5-25.1,6.4-37.4
	C68.8,249.5,66.4,233.3,66.1,217.8z"/>
<path class="st2" d="M76.3,253.2L76.3,253.2c-7.6-3.5-9.8-20.1-10.2-35.5c1.9-25.4,2.4-50.9,1.7-76.4C67.4,128.1,68,17.7,64.5,1.5
	c2.4,5.5,5.1,10.8,8.2,15.9c8.1,12.7,40.1,30.7,55.4,98.2C140,185.3,103.3,234.6,76.3,253.2z"/>
</svg>
