<?xml version="1.0" encoding="UTF-8" standalone="no"?>
<!-- Generator: Adobe Illustrator 22.1.0, SVG Export Plug-In . SVG Version: 6.00 Build 0)  -->

<svg
   version="1.1"
   id="Layer_1"
   x="0px"
   y="0px"
   viewBox="0 0 363.10001 332.9234"
   xml:space="preserve"
   sodipodi:docname="paperwork-5000691.svg"
   width="363.10001"
   height="332.9234"
   inkscape:version="1.1.1 (3bf5ae0d25, 2021-09-20)"
   xmlns:inkscape="http://www.inkscape.org/namespaces/inkscape"
   xmlns:sodipodi="http://sodipodi.sourceforge.net/DTD/sodipodi-0.dtd"
   xmlns="http://www.w3.org/2000/svg"
   xmlns:svg="http://www.w3.org/2000/svg"><defs
   id="defs787" /><sodipodi:namedview
   id="namedview785"
   pagecolor="#505050"
   bordercolor="#eeeeee"
   borderopacity="1"
   inkscape:pageshadow="0"
   inkscape:pageopacity="0"
   inkscape:pagecheckerboard="0"
   showgrid="false"
   inkscape:zoom="1.2331942"
   inkscape:cx="87.171994"
   inkscape:cy="169.07312"
   inkscape:window-width="1858"
   inkscape:window-height="1057"
   inkscape:window-x="54"
   inkscape:window-y="-8"
   inkscape:window-maximized="1"
   inkscape:current-layer="Layer_1" />
<style
   type="text/css"
   id="style2">
	.st0{fill:#2F2035;}
	.st1{fill:#596273;}
	.st2{fill-rule:evenodd;clip-rule:evenodd;fill:#DCE4E7;}
	.st3{fill:#AFAFAF;}
	.st4{fill-rule:evenodd;clip-rule:evenodd;fill:#E2E2E2;}
	.st5{fill-rule:evenodd;clip-rule:evenodd;fill:#F3F4F4;}
	.st6{fill-rule:evenodd;clip-rule:evenodd;fill:#596273;}
	.st7{fill-rule:evenodd;clip-rule:evenodd;fill:#FFFFFF;}
	.st8{fill:#FFFFFF;}
	.st9{fill:#D2D5D9;}
	.st10{fill:#8E96A0;}
	.st11{fill:#DCE4E7;}
	.st12{fill:#566472;}
	.st13{fill:#D3DCE0;}
</style>

<g
   id="g782"
   transform="translate(-67.8,-83.276598)">
	<path
   class="st1"
   d="m 406.7,259.8 c 0,1.5 0,3 -0.1,4.5 -0.2,6.2 -0.7,12.3 -1.6,18.3 -0.9,6.2 -2.2,12.4 -3.8,18.3 -18.1,66.4 -78.8,115.3 -151,115.3 -86.4,0 -156.5,-70.1 -156.5,-156.5 0,-86.4 70,-156.5 156.5,-156.5 86.5,0 156.5,70.2 156.5,156.6 z"
   id="path6" />
	<path
   class="st2"
   d="m 193.2,156.5 c -0.4,-0.8 -1.1,-0.9 -1.9,-0.6 l -3.5,1.6 c -0.9,0.4 0.1,1.9 1.1,3.9 0.3,0.6 0.9,0.7 1.6,0.4 2.9,-1.5 5.7,3.2 2.2,5 -2.3,1.1 -3.7,-0.4 -4.8,-2.7 -2.2,-4.5 -3.1,-4.9 -4.1,-4.5 l -2.6,1.3 c -0.9,0.5 -0.5,1.5 0.4,3.3 0.5,1 0.8,1.6 1.4,1.3 3.5,-1.7 5.7,3.1 2.3,4.8 -2.1,1 -3.8,-1 -4.2,-3 -0.2,-0.6 0.1,-0.9 -0.2,-1.6 -1.1,-2.3 -2.2,-3.6 -3.4,-3 l -4.2,1.9 1.7,3.4 c 0.2,0.6 0.7,0.8 1.3,0.5 2.9,-1.5 5.6,3.3 1.5,5.3 -1.4,0.6 -3.2,0.4 -4.2,-1.4 -1.2,-2.4 -0.1,-3 -0.7,-4.8 -0.9,-1.7 -1.9,-1.7 -2.7,-1.4 l -3.5,1.6 c -0.9,0.4 0.1,1.9 1.1,3.9 0.3,0.6 0.9,0.7 1.6,0.4 2.9,-1.5 5.7,3.2 2.2,5 -2.3,1.1 -3.7,-0.4 -4.8,-2.7 -2.2,-4.5 -3.1,-4.9 -4.1,-4.5 l -2.6,1.3 c -0.9,0.5 -0.5,1.5 0.4,3.3 0.5,1 0.8,1.6 1.4,1.3 3.5,-1.7 5.7,3.1 2.3,4.8 -2.1,1 -3.8,-1 -4.2,-3 -0.2,-0.6 0.1,-0.9 -0.2,-1.6 -1.1,-2.3 -2.2,-3.6 -3.4,-3 l -4.2,1.9 1.7,3.4 c 0.2,0.6 0.7,0.8 1.3,0.5 2.9,-1.5 5.5,3.4 2.1,5 -2.6,1.3 -4,-1.1 -5.2,-3.6 l -1.8,-3.6 c -0.3,-0.3 -0.7,-0.4 -1,-0.2 l -3.5,1.6 c -0.9,0.4 0.1,1.9 1.1,3.9 0.4,0.6 0.9,0.7 1.6,0.4 2.9,-1.5 5.7,3.2 2.2,5 -2.3,1.1 -3.7,-0.4 -4.8,-2.7 -2.2,-4.5 -3.1,-4.9 -4.1,-4.5 l -2.6,1.3 c -0.9,0.5 -0.5,1.5 0.4,3.3 0.5,1 0.8,1.6 1.4,1.3 3.5,-1.7 5.7,3.1 2.3,4.8 -2.1,1 -3.8,-1 -4.2,-3 -0.2,-0.6 0.1,-0.9 -0.2,-1.6 -1.1,-2.3 -2.2,-3.6 -3.4,-3 l -4.2,1.9 1.7,3.4 c 0.2,0.6 0.7,0.8 1.3,0.5 2.9,-1.5 5.6,3.3 1.5,5.3 -1.4,0.6 -3.2,0.4 -4.2,-1.4 -1.2,-2.4 -0.1,-3 -0.7,-4.8 -0.9,-1.7 -1.9,-1.7 -2.7,-1.4 l -3.5,1.6 c -0.9,0.4 0.1,1.9 1.1,3.9 0.3,0.6 0.9,0.7 1.6,0.4 2.9,-1.5 5.7,3.2 2.2,5 -2.3,1.1 -3.7,-0.4 -4.8,-2.7 -2.2,-4.5 -3.1,-4.9 -4.1,-4.5 l -2.6,1.3 c -0.9,0.5 -0.5,1.5 0.4,3.3 0.5,1 0.8,1.6 1.4,1.3 3.5,-1.7 5.7,3.1 2.3,4.8 -2.1,1 -3.8,-1 -4.2,-3 -0.2,-0.6 0.1,-0.9 -0.2,-1.6 -1.1,-2.3 -2.2,-3.6 -3.4,-3 l -4.2,1.9 1.7,3.4 c 0.2,0.6 0.7,0.8 1.3,0.5 2.9,-1.5 5.6,3.3 1.5,5.3 -2.3,1.1 -3.7,-1.5 -3.7,-4.2 -0.2,-1.2 -0.6,-2.1 -1.3,-2.7 -1,-0.7 -1.7,-1 -2.8,-0.5 l -3.5,1.6 c -0.9,0.4 0.1,1.9 1.1,3.9 0.4,0.6 0.9,0.7 1.6,0.4 2.9,-1.5 5.7,3.2 2.2,5 -2.3,1.1 -3.7,-0.4 -4.8,-2.7 -2.2,-4.5 -3.1,-4.9 -4.1,-4.5 l -2.6,1.3 c -0.9,0.5 -0.5,1.5 0.4,3.3 0.5,1 0.8,1.6 1.4,1.3 3.5,-1.7 5.7,3.1 2.3,4.8 -2.1,1 -3.8,-1 -4.2,-3 -0.2,-0.6 0.1,-0.9 -0.2,-1.6 -1.1,-2.3 -2.2,-3.6 -3.4,-3 l -4.2,1.9 1.7,3.4 c 0.2,0.6 0.7,0.8 1.3,0.5 2.9,-1.5 5.6,3.3 1.5,5.3 -1.4,0.6 -3.2,0.4 -4.2,-1.4 -1.2,-2.4 -0.1,-3 -0.7,-4.8 -0.9,-1.7 -1.9,-1.7 -2.7,-1.4 l -3.5,1.6 c -0.9,0.4 0.1,1.9 1.1,3.9 0.3,0.6 0.9,0.7 1.6,0.4 2.9,-1.5 5.7,3.2 2.2,5 -2.3,1.1 -3.7,-0.4 -4.8,-2.7 -2.2,-4.5 -3.1,-4.9 -4.1,-4.5 l -2.6,1.3 c -0.9,0.5 -0.5,1.5 0.4,3.3 0.5,1 0.8,1.6 1.4,1.3 3.5,-1.7 5.7,3.1 2.3,4.8 -2.1,1 -3.8,-1 -4.2,-3 -0.2,-0.6 0.1,-0.9 -0.2,-1.6 -1.1,-2.3 -2.2,-3.6 -3.4,-3 l -4.2,1.9 1.7,3.4 c 0.2,0.6 0.7,0.8 1.3,0.5 2.9,-1.5 5.6,3.3 1.5,5.3 -0.7,0.4 -1.3,1.2 -1.2,1.8 0.1,0.3 0.2,0.6 0.1,1 l 80,162.1 L 278,328.6 198,166.5 v 0 c -1.6,-3.4 -3.2,-6.8 -4.8,-10 z"
   id="path8" />
	
		<rect
   x="113.6"
   y="262.70001"
   transform="matrix(0.8969,-0.4423,0.4423,0.8969,-104.2449,79.312)"
   class="st3"
   width="8.6000004"
   height="0.89999998"
   id="rect10" />
	
		<rect
   x="125.3"
   y="257"
   transform="matrix(0.8969,-0.4423,0.4423,0.8969,-100.4959,83.8801)"
   class="st3"
   width="8.6000004"
   height="0.89999998"
   id="rect12" />
	
		<rect
   x="137.2"
   y="251.10001"
   transform="matrix(0.8969,-0.4423,0.4423,0.8969,-96.6795,88.5293)"
   class="st3"
   width="8.6000004"
   height="0.89999998"
   id="rect14" />
	
		<rect
   x="149.10001"
   y="245.3"
   transform="matrix(0.8969,-0.4423,0.4423,0.8969,-92.8638,93.1795)"
   class="st3"
   width="8.6000004"
   height="0.89999998"
   id="rect16" />
	
		<rect
   x="161"
   y="239.39999"
   transform="matrix(0.8969,-0.4423,0.4423,0.8969,-89.0815,97.7889)"
   class="st3"
   width="8.3999996"
   height="0.89999998"
   id="rect18" />
	
		<rect
   x="123"
   y="260.79999"
   transform="matrix(0.8969,-0.4423,0.4423,0.8969,-100.8987,89.8762)"
   class="st3"
   width="38.599998"
   height="0.89999998"
   id="rect20" />
	
		<rect
   x="164.89999"
   y="240.2"
   transform="matrix(0.8969,-0.4423,0.4423,0.8969,-87.4423,106.2727)"
   class="st3"
   width="38.599998"
   height="0.89999998"
   id="rect22" />
	
		<rect
   x="121.2"
   y="277.10001"
   transform="matrix(0.8969,-0.4423,0.4423,0.8969,-109.3689,86.0428)"
   class="st3"
   width="17.200001"
   height="0.89999998"
   id="rect24" />
	
		<rect
   x="138.5"
   y="268.5"
   transform="matrix(0.8969,-0.4423,0.4423,0.8969,-103.7792,92.8548)"
   class="st3"
   width="17.4"
   height="0.89999998"
   id="rect26" />
	
		<rect
   x="166.2"
   y="254.8"
   transform="matrix(0.8969,-0.4423,0.4423,0.8969,-94.8747,103.7035)"
   class="st3"
   width="17.4"
   height="0.89999998"
   id="rect28" />
	
		<rect
   x="183.89999"
   y="246.10001"
   transform="matrix(0.8969,-0.4423,0.4423,0.8969,-89.2176,110.5964)"
   class="st3"
   width="17.200001"
   height="0.89999998"
   id="rect30" />
	
		<rect
   x="146.2"
   y="277.60001"
   transform="matrix(0.8969,-0.4423,0.4423,0.8969,-107.5622,94.7304)"
   class="st3"
   width="6.3000002"
   height="0.89999998"
   id="rect32" />
	
		<rect
   x="155.39999"
   y="273"
   transform="matrix(0.8969,-0.4423,0.4423,0.8969,-104.5827,98.3598)"
   class="st3"
   width="6.5"
   height="0.89999998"
   id="rect34" />
	
		<rect
   x="164.8"
   y="268.39999"
   transform="matrix(0.8969,-0.4423,0.4423,0.8969,-101.6049,101.992)"
   class="st3"
   width="6.3000002"
   height="0.89999998"
   id="rect36" />
	
		<rect
   x="174.10001"
   y="263.79999"
   transform="matrix(0.8969,-0.4423,0.4423,0.8969,-98.5913,105.6612)"
   class="st3"
   width="6.3000002"
   height="0.89999998"
   id="rect38" />
	
		<rect
   x="183.5"
   y="259.10001"
   transform="matrix(0.8969,-0.4423,0.4423,0.8969,-95.5457,109.3738)"
   class="st3"
   width="6.5"
   height="0.89999998"
   id="rect40" />
	
		<rect
   x="192.89999"
   y="254.5"
   transform="matrix(0.8969,-0.4423,0.4423,0.8969,-92.533,113.0446)"
   class="st3"
   width="6.5"
   height="0.89999998"
   id="rect42" />
	
		<rect
   x="202.3"
   y="249.89999"
   transform="matrix(0.8969,-0.4423,0.4423,0.8969,-89.5534,116.6735)"
   class="st3"
   width="6.3000002"
   height="0.89999998"
   id="rect44" />
	
		<rect
   x="211.7"
   y="245.3"
   transform="matrix(0.8969,-0.4423,0.4423,0.8969,-86.5407,120.3443)"
   class="st3"
   width="6.3000002"
   height="0.89999998"
   id="rect46" />
	
		<rect
   x="128.60001"
   y="290.60001"
   transform="matrix(0.8969,-0.4423,0.4423,0.8969,-113.9579,93.427)"
   class="st3"
   width="29.5"
   height="0.89999998"
   id="rect48" />
	
		<rect
   x="157.39999"
   y="276.39999"
   transform="matrix(0.8969,-0.4423,0.4423,0.8969,-104.7188,104.6838)"
   class="st3"
   width="29.5"
   height="0.89999998"
   id="rect50" />
	
		<rect
   x="186.3"
   y="262.10001"
   transform="matrix(0.8969,-0.4423,0.4423,0.8969,-95.4131,116.0225)"
   class="st3"
   width="29.5"
   height="0.89999998"
   id="rect52" />
	
		<rect
   x="133.39999"
   y="302.39999"
   transform="matrix(0.8969,-0.4423,0.4423,0.8969,-119.654,92.641)"
   class="st3"
   width="10.9"
   height="0.89999998"
   id="rect54" />
	
		<rect
   x="146.7"
   y="295.89999"
   transform="matrix(0.8969,-0.4423,0.4423,0.8969,-115.3686,97.8607)"
   class="st3"
   width="10.9"
   height="0.89999998"
   id="rect56" />
	
		<rect
   x="160.2"
   y="289.20001"
   transform="matrix(0.8969,-0.4423,0.4423,0.8969,-111.0176,103.1639)"
   class="st3"
   width="10.9"
   height="0.89999998"
   id="rect58" />
	
		<rect
   x="173.60001"
   y="282.60001"
   transform="matrix(0.8969,-0.4423,0.4423,0.8969,-106.7336,108.3857)"
   class="st3"
   width="10.9"
   height="0.89999998"
   id="rect60" />
	
		<rect
   x="194"
   y="272.60001"
   transform="matrix(0.8969,-0.4423,0.4423,0.8969,-100.2052,116.3374)"
   class="st3"
   width="10.7"
   height="0.89999998"
   id="rect62" />
	
		<rect
   x="207.60001"
   y="265.89999"
   transform="matrix(0.8969,-0.4423,0.4423,0.8969,-95.8538,121.6403)"
   class="st3"
   width="10.7"
   height="0.89999998"
   id="rect64" />
	
		<rect
   x="137"
   y="308.70001"
   transform="matrix(0.8969,-0.4423,0.4423,0.8969,-121.5778,96.9502)"
   class="st3"
   width="20.200001"
   height="0.89999998"
   id="rect66" />
	
		<rect
   x="172"
   y="291.39999"
   transform="matrix(0.8969,-0.4423,0.4423,0.8969,-110.2973,110.6957)"
   class="st3"
   width="20.4"
   height="0.89999998"
   id="rect68" />
	
		<rect
   x="206.8"
   y="274.20001"
   transform="matrix(0.8969,-0.4423,0.4423,0.8969,-99.0833,124.359)"
   class="st3"
   width="20.700001"
   height="0.89999998"
   id="rect70" />
	
		<rect
   x="161.5"
   y="303.39999"
   transform="matrix(0.8969,-0.4423,0.4423,0.8969,-116.0747,109.9764)"
   class="st3"
   width="32.5"
   height="0.89999998"
   id="rect72" />
	
		<rect
   x="196.7"
   y="286"
   transform="matrix(0.8969,-0.4423,0.4423,0.8969,-104.727,123.8029)"
   class="st3"
   width="32.799999"
   height="0.89999998"
   id="rect74" />
	
		<rect
   x="159.10001"
   y="307.79999"
   transform="matrix(0.8969,-0.4423,0.4423,0.8969,-116.7603,115.795)"
   class="st3"
   width="61.599998"
   height="0.89999998"
   id="rect76" />
	
		<rect
   x="169.7"
   y="324.20001"
   transform="matrix(0.8969,-0.4423,0.4423,0.8969,-125.3309,111.8393)"
   class="st3"
   width="14.9"
   height="0.89999998"
   id="rect78" />
	
		<rect
   x="186"
   y="316.20001"
   transform="matrix(0.8969,-0.4423,0.4423,0.8969,-120.1087,118.2016)"
   class="st3"
   width="14.9"
   height="0.89999998"
   id="rect80" />
	
		<rect
   x="202.2"
   y="308.20001"
   transform="matrix(0.8969,-0.4423,0.4423,0.8969,-114.8868,124.5643)"
   class="st3"
   width="14.9"
   height="0.89999998"
   id="rect82" />
	
		<rect
   x="218.5"
   y="300.20001"
   transform="matrix(0.8969,-0.4423,0.4423,0.8969,-109.6648,130.927)"
   class="st3"
   width="14.9"
   height="0.89999998"
   id="rect84" />
	
		<rect
   x="154.60001"
   y="333"
   transform="matrix(0.8969,-0.4423,0.4423,0.8969,-128.9475,113.9201)"
   class="st3"
   width="50.400002"
   height="0.89999998"
   id="rect86" />
	
		<rect
   x="203.10001"
   y="314.79999"
   transform="matrix(0.8969,-0.4423,0.4423,0.8969,-117.0977,128.3587)"
   class="st3"
   width="27.200001"
   height="0.89999998"
   id="rect88" />
	
		<rect
   x="166.39999"
   y="344.70001"
   transform="matrix(0.8969,-0.4423,0.4423,0.8969,-134.4718,113.6756)"
   class="st3"
   width="20.200001"
   height="0.89999998"
   id="rect90" />
	
		<rect
   x="187.7"
   y="337.20001"
   transform="matrix(0.8969,-0.4423,0.4423,0.8969,-129.5517,119.6722)"
   class="st3"
   width="8.3999996"
   height="0.89999998"
   id="rect92" />
	
		<rect
   x="196.2"
   y="333"
   transform="matrix(0.8969,-0.4423,0.4423,0.8969,-126.8054,123.0145)"
   class="st3"
   width="8.3999996"
   height="0.89999998"
   id="rect94" />
	
		<rect
   x="205"
   y="328.70001"
   transform="matrix(0.8969,-0.4423,0.4423,0.8969,-124.0623,126.3617)"
   class="st3"
   width="7.9000001"
   height="0.89999998"
   id="rect96" />
	
		<rect
   x="213.3"
   y="324.5"
   transform="matrix(0.8969,-0.4423,0.4423,0.8969,-121.3162,129.7042)"
   class="st3"
   width="8.3999996"
   height="0.89999998"
   id="rect98" />
	
		<rect
   x="221.8"
   y="320.39999"
   transform="matrix(0.8969,-0.4423,0.4423,0.8969,-118.606,133.0102)"
   class="st3"
   width="8.1000004"
   height="0.89999998"
   id="rect100" />
	
		<rect
   x="230.60001"
   y="316.10001"
   transform="matrix(0.8969,-0.4423,0.4423,0.8969,-115.8271,136.3945)"
   class="st3"
   width="7.9000001"
   height="0.89999998"
   id="rect102" />
	
		<rect
   x="238.89999"
   y="311.89999"
   transform="matrix(0.8969,-0.4423,0.4423,0.8969,-113.0824,139.7393)"
   class="st3"
   width="8.3999996"
   height="0.89999998"
   id="rect104" />
	
		<rect
   x="189.39999"
   y="343.79999"
   transform="matrix(0.8969,-0.4423,0.4423,0.8969,-131.7806,123.2757)"
   class="st3"
   width="18.1"
   height="0.89999998"
   id="rect106" />
	
		<rect
   x="208.8"
   y="334.20001"
   transform="matrix(0.8969,-0.4423,0.4423,0.8969,-125.5548,130.8627)"
   class="st3"
   width="18.1"
   height="0.89999998"
   id="rect108" />
	
		<rect
   x="227.7"
   y="324.79999"
   transform="matrix(0.8969,-0.4423,0.4423,0.8969,-119.4621,138.2852)"
   class="st3"
   width="18.1"
   height="0.89999998"
   id="rect110" />
	
		<rect
   x="180.8"
   y="353.79999"
   transform="matrix(0.8969,-0.4423,0.4423,0.8969,-136.2532,124.1481)"
   class="st3"
   width="34.599998"
   height="0.89999998"
   id="rect112" />
	
		<rect
   x="243"
   y="328.5"
   transform="matrix(0.8969,-0.4423,0.4423,0.8969,-119.7838,144.2149)"
   class="st3"
   width="12.8"
   height="0.89999998"
   id="rect114" />
	<g
   id="g336">
		<g
   id="g224">
			<path
   class="st4"
   d="m 270.6,103.3 c -0.1,-0.9 -0.7,-1.2 -1.5,-1.2 l -3.7,0.3 c -0.9,0.1 -0.5,1.8 -0.3,3.9 0.1,0.7 0.5,1 1.3,0.9 3.1,-0.3 4,4.8 0.3,5.2 -2.4,0.2 -3.2,-1.6 -3.4,-4.1 -0.5,-4.8 -1.1,-5.5 -2.2,-5.4 l -2.7,0.3 c -1,0.1 -1,1.2 -0.8,3.1 0.1,1.1 0.2,1.7 0.8,1.6 3.7,-0.4 4,4.7 0.5,5.1 -2.2,0.2 -3,-2.2 -2.7,-4.1 0,-0.6 0.4,-0.8 0.4,-1.5 -0.2,-2.4 -0.8,-4 -2,-3.8 l -4.4,0.3 0.4,3.6 c 0,0.6 0.3,1 1,0.9 3.1,-0.3 4,4.8 -0.5,5.3 -1.4,0.1 -3,-0.7 -3.3,-2.7 -0.3,-2.6 1,-2.7 1,-4.5 -0.2,-1.9 -1.1,-2.2 -2,-2.1 l -3.7,0.3 c -0.9,0.1 -0.5,1.8 -0.3,3.9 0.1,0.7 0.5,1 1.3,0.9 3.1,-0.3 4,4.8 0.3,5.2 -2.4,0.2 -3.2,-1.6 -3.4,-4.1 -0.5,-4.8 -1.1,-5.5 -2.2,-5.4 l -2.7,0.3 c -1,0.1 -1,1.2 -0.8,3.1 0.1,1.1 0.2,1.7 0.8,1.6 3.7,-0.4 4,4.7 0.5,5.1 -2.2,0.2 -3,-2.2 -2.7,-4.1 0,-0.6 0.4,-0.8 0.4,-1.5 -0.2,-2.4 -0.8,-4 -2,-3.8 l -4.4,0.3 0.4,3.6 c 0,0.6 0.3,1 1,0.9 3.1,-0.3 3.8,4.9 0.2,5.2 -2.7,0.3 -3.2,-2.4 -3.5,-5 l -0.4,-3.8 c -0.2,-0.4 -0.5,-0.6 -0.8,-0.5 l -3.7,0.3 c -0.9,0.1 -0.5,1.8 -0.3,3.9 0.1,0.7 0.5,1 1.3,0.9 3.1,-0.3 4,4.8 0.3,5.2 -2.4,0.2 -3.2,-1.6 -3.4,-4.1 -0.5,-4.8 -1.1,-5.5 -2.2,-5.4 l -2.7,0.3 c -1,0.1 -1,1.2 -0.8,3.1 0.1,1.1 0.2,1.7 0.8,1.6 3.7,-0.4 4,4.7 0.5,5.1 -2.2,0.2 -3,-2.2 -2.7,-4.1 0,-0.6 0.4,-0.8 0.4,-1.5 -0.2,-2.4 -0.8,-4 -2,-3.8 l -4.4,0.3 0.4,3.6 c 0,0.6 0.3,1 1,0.9 3.1,-0.3 4,4.8 -0.5,5.3 -1.4,0.1 -3,-0.7 -3.3,-2.7 -0.3,-2.6 1,-2.7 1,-4.5 -0.2,-1.9 -1.1,-2.2 -2,-2.1 l -3.7,0.3 c -0.9,0.1 -0.5,1.8 -0.3,3.9 0.1,0.7 0.5,1 1.3,0.9 3.1,-0.3 4,4.8 0.3,5.2 -2.4,0.2 -3.2,-1.6 -3.4,-4.1 -0.5,-4.8 -1.1,-5.5 -2.2,-5.4 l -2.7,0.3 c -1,0.1 -1,1.2 -0.8,3.1 0.1,1.1 0.2,1.7 0.8,1.6 3.7,-0.4 4,4.7 0.5,5.1 -2.2,0.2 -3,-2.2 -2.7,-4.1 0,-0.6 0.4,-0.8 0.4,-1.5 -0.2,-2.4 -0.8,-4 -2,-3.8 l -4.4,0.3 0.4,3.6 c 0,0.6 0.3,1 1,0.9 3.1,-0.3 4,4.8 -0.5,5.3 -2.4,0.2 -2.8,-2.6 -1.9,-5 0.3,-1.2 0.2,-2.1 -0.2,-2.8 -0.7,-1 -1.2,-1.4 -2.4,-1.4 l -3.7,0.3 c -0.9,0.1 -0.5,1.8 -0.3,3.9 0.1,0.7 0.5,1 1.3,0.9 3.1,-0.3 4,4.8 0.3,5.2 -2.4,0.2 -3.2,-1.6 -3.4,-4.1 -0.5,-4.8 -1.1,-5.5 -2.2,-5.4 l -2.7,0.3 c -1,0.1 -1,1.2 -0.8,3.1 0.1,1.1 0.2,1.7 0.8,1.6 3.7,-0.4 4,4.7 0.5,5.1 -2.2,0.2 -3,-2.2 -2.7,-4.1 0,-0.6 0.4,-0.8 0.4,-1.5 -0.2,-2.4 -0.8,-4 -2,-3.8 l -4.4,0.3 0.4,3.6 c 0,0.6 0.3,1 1,0.9 3.1,-0.3 4,4.8 -0.5,5.3 -1.4,0.1 -3,-0.7 -3.3,-2.7 -0.3,-2.6 1,-2.7 1,-4.5 -0.2,-1.9 -1.1,-2.2 -2,-2.1 l -3.7,0.3 c -0.9,0.1 -0.5,1.8 -0.3,3.9 0.1,0.7 0.5,1 1.3,0.9 3.1,-0.3 4,4.8 0.3,5.2 -2.4,0.2 -3.2,-1.6 -3.4,-4.1 -0.5,-4.8 -1.1,-5.5 -2.2,-5.4 l -2.7,0.3 c -1,0.1 -1,1.2 -0.8,3.1 0.1,1.1 0.2,1.7 0.8,1.6 3.7,-0.4 4,4.7 0.5,5.1 -2.2,0.2 -3,-2.2 -2.7,-4.1 0,-0.6 0.4,-0.8 0.4,-1.5 -0.2,-2.4 -0.8,-4 -2,-3.8 l -4.4,0.3 0.4,3.6 c 0,0.6 0.3,1 1,0.9 3.1,-0.3 4,4.8 -0.5,5.3 -0.7,0.1 -1.6,0.6 -1.7,1.2 0,0.3 -0.1,0.6 -0.2,0.9 l 16.9,172.4 134.8,-13.2 -16.9,-172.4 v 0 c -1.3,-3.8 -1.7,-7.4 -2,-10.8 z"
   id="path116" />
			
				<rect
   x="162.89999"
   y="173.10001"
   transform="matrix(0.9953,-0.09732664,0.09732664,0.9953,-16.0927,17.0812)"
   class="st3"
   width="8.1999998"
   height="0.89999998"
   id="rect118" />
			
				<rect
   x="175.3"
   y="171.8"
   transform="matrix(0.9953,-0.09733173,0.09733173,0.9953,-15.9164,18.2845)"
   class="st3"
   width="8.1999998"
   height="0.89999998"
   id="rect120" />
			
				<rect
   x="188"
   y="170.60001"
   transform="matrix(0.9953,-0.09732664,0.09732664,0.9953,-15.7354,19.5073)"
   class="st3"
   width="8.1999998"
   height="0.89999998"
   id="rect122" />
			
				<rect
   x="200.60001"
   y="169.39999"
   transform="matrix(0.9953,-0.09733223,0.09733223,0.9953,-15.556,20.7323)"
   class="st3"
   width="8.1999998"
   height="0.89999998"
   id="rect124" />
			
				<rect
   x="213.2"
   y="168.10001"
   transform="matrix(0.9953,-0.09732744,0.09732744,0.9953,-15.3767,21.9442)"
   class="st3"
   width="8"
   height="0.89999998"
   id="rect126" />
			
				<rect
   x="171"
   y="179.60001"
   transform="matrix(0.9953,-0.09732803,0.09732803,0.9953,-16.622,19.2981)"
   class="st3"
   width="37"
   height="0.89999998"
   id="rect128" />
			
				<rect
   x="215.60001"
   y="175.2"
   transform="matrix(0.9953,-0.09732803,0.09732803,0.9953,-15.9864,23.6135)"
   class="st3"
   width="37"
   height="0.89999998"
   id="rect130" />
			
				<rect
   x="164.60001"
   y="189.89999"
   transform="matrix(0.9953,-0.09732689,0.09732689,0.9953,-17.7089,17.7251)"
   class="st3"
   width="16.5"
   height="0.89999998"
   id="rect132" />
			
				<rect
   x="183"
   y="188.10001"
   transform="matrix(0.9953,-0.09732901,0.09732901,0.9953,-17.4452,19.5182)"
   class="st3"
   width="16.700001"
   height="0.89999998"
   id="rect134" />
			
				<rect
   x="212.5"
   y="185.2"
   transform="matrix(0.9953,-0.09732901,0.09732901,0.9953,-17.0247,22.3737)"
   class="st3"
   width="16.700001"
   height="0.89999998"
   id="rect136" />
			
				<rect
   x="231.3"
   y="183.39999"
   transform="matrix(0.9953,-0.09732918,0.09732918,0.9953,-16.7575,24.188)"
   class="st3"
   width="16.5"
   height="0.89999998"
   id="rect138" />
			
				<rect
   x="187.2"
   y="197"
   transform="matrix(0.9953,-0.09732761,0.09732761,0.9953,-18.3107,19.448)"
   class="st3"
   width="6"
   height="0.89999998"
   id="rect140" />
			
				<rect
   x="196.89999"
   y="196"
   transform="matrix(0.9953,-0.0973272,0.0973272,0.9953,-18.17,20.4033)"
   class="st3"
   width="6.1999998"
   height="0.89999998"
   id="rect142" />
			
				<rect
   x="206.89999"
   y="195"
   transform="matrix(0.9953,-0.09732693,0.09732693,0.9953,-18.0292,21.3587)"
   class="st3"
   width="6"
   height="0.89999998"
   id="rect144" />
			
				<rect
   x="216.89999"
   y="194.10001"
   transform="matrix(0.9953,-0.09733459,0.09733459,0.9953,-17.8883,22.3266)"
   class="st3"
   width="6"
   height="0.89999998"
   id="rect146" />
			
				<rect
   x="226.89999"
   y="193.10001"
   transform="matrix(0.9953,-0.09732655,0.09732655,0.9953,-17.743,23.3015)"
   class="st3"
   width="6.1999998"
   height="0.89999998"
   id="rect148" />
			
				<rect
   x="236.8"
   y="192.10001"
   transform="matrix(0.9953,-0.09732655,0.09732655,0.9953,-17.6007,24.2677)"
   class="st3"
   width="6.1999998"
   height="0.89999998"
   id="rect150" />
			
				<rect
   x="246.8"
   y="191.10001"
   transform="matrix(0.9953,-0.09732761,0.09732761,0.9953,-17.4602,25.2233)"
   class="st3"
   width="6"
   height="0.89999998"
   id="rect152" />
			
				<rect
   x="256.79999"
   y="190.2"
   transform="matrix(0.9953,-0.09732693,0.09732693,0.9953,-17.3178,26.1893)"
   class="st3"
   width="6"
   height="0.89999998"
   id="rect154" />
			
				<rect
   x="166.3"
   y="206.7"
   transform="matrix(0.9953,-0.09732862,0.09732862,0.9953,-19.3,18.541)"
   class="st3"
   width="28.299999"
   height="0.89999998"
   id="rect156" />
			
				<rect
   x="196.8"
   y="203.7"
   transform="matrix(0.9953,-0.09732877,0.09732877,0.9953,-18.8637,21.5039)"
   class="st3"
   width="28.299999"
   height="0.89999998"
   id="rect158" />
			
				<rect
   x="227.7"
   y="200.60001"
   transform="matrix(0.9953,-0.09732728,0.09732728,0.9953,-18.4239,24.4878)"
   class="st3"
   width="28.299999"
   height="0.89999998"
   id="rect160" />
			
				<rect
   x="167.10001"
   y="215.7"
   transform="matrix(0.9953,-0.09733049,0.09733049,0.9953,-20.2213,17.7995)"
   class="st3"
   width="10.5"
   height="0.89999998"
   id="rect162" />
			
				<rect
   x="181.3"
   y="214.3"
   transform="matrix(0.9953,-0.09732647,0.09732647,0.9953,-20.0181,19.1728)"
   class="st3"
   width="10.5"
   height="0.89999998"
   id="rect164" />
			
				<rect
   x="195.7"
   y="212.89999"
   transform="matrix(0.9953,-0.09733049,0.09733049,0.9953,-19.8134,20.5692)"
   class="st3"
   width="10.5"
   height="0.89999998"
   id="rect166" />
			
				<rect
   x="209.89999"
   y="211.5"
   transform="matrix(0.9953,-0.09733049,0.09733049,0.9953,-19.611,21.9433)"
   class="st3"
   width="10.5"
   height="0.89999998"
   id="rect168" />
			
				<rect
   x="231.60001"
   y="209.39999"
   transform="matrix(0.9953,-0.0973267,0.0973267,0.9953,-19.302,24.0357)"
   class="st3"
   width="10.2"
   height="0.89999998"
   id="rect170" />
			
				<rect
   x="246"
   y="208"
   transform="matrix(0.9953,-0.0973271,0.0973271,0.9953,-19.0965,25.4313)"
   class="st3"
   width="10.2"
   height="0.89999998"
   id="rect172" />
			
				<rect
   x="167.89999"
   y="224.2"
   transform="matrix(0.9953,-0.09732814,0.09732814,0.9953,-21.0163,18.355)"
   class="st3"
   width="19.4"
   height="0.89999998"
   id="rect174" />
			
				<rect
   x="205.2"
   y="220.5"
   transform="matrix(0.9953,-0.0973278,0.0973278,0.9953,-20.4835,21.9725)"
   class="st3"
   width="19.6"
   height="0.89999998"
   id="rect176" />
			
				<rect
   x="242.2"
   y="216.89999"
   transform="matrix(0.9953,-0.09732767,0.09732767,0.9953,-19.9538,25.5687)"
   class="st3"
   width="19.799999"
   height="0.89999998"
   id="rect178" />
			
				<rect
   x="191.3"
   y="229.8"
   transform="matrix(0.9953,-0.09732802,0.09732802,0.9953,-21.4259,21.234)"
   class="st3"
   width="31.200001"
   height="0.89999998"
   id="rect180" />
			
				<rect
   x="228.8"
   y="226.10001"
   transform="matrix(0.9953,-0.09732781,0.09732781,0.9953,-20.8899,24.873)"
   class="st3"
   width="31.4"
   height="0.89999998"
   id="rect182" />
			
				<rect
   x="186.8"
   y="237.8"
   transform="matrix(0.9953,-0.09732775,0.09732775,0.9953,-22.1629,22.187)"
   class="st3"
   width="59"
   height="0.89999998"
   id="rect184" />
			
				<rect
   x="192.2"
   y="248.2"
   transform="matrix(0.9953,-0.09733,0.09733,0.9953,-23.2552,20.5825)"
   class="st3"
   width="14.3"
   height="0.89999998"
   id="rect186" />
			
				<rect
   x="209.5"
   y="246.5"
   transform="matrix(0.9953,-0.09733,0.09733,0.9953,-23.0086,22.2571)"
   class="st3"
   width="14.3"
   height="0.89999998"
   id="rect188" />
			
				<rect
   x="226.8"
   y="244.8"
   transform="matrix(0.9953,-0.09732971,0.09732971,0.9953,-22.7619,23.9317)"
   class="st3"
   width="14.3"
   height="0.89999998"
   id="rect190" />
			
				<rect
   x="244.10001"
   y="243.10001"
   transform="matrix(0.9953,-0.09732705,0.09732705,0.9953,-22.5147,25.6057)"
   class="st3"
   width="14.3"
   height="0.89999998"
   id="rect192" />
			
				<rect
   x="174.60001"
   y="257"
   transform="matrix(0.9953,-0.09732817,0.09732817,0.9953,-24.1127,20.5658)"
   class="st3"
   width="48.299999"
   height="0.89999998"
   id="rect194" />
			
				<rect
   x="224.89999"
   y="253.2"
   transform="matrix(0.9953,-0.0973274,0.0973274,0.9953,-23.5528,24.3658)"
   class="st3"
   width="26.1"
   height="0.89999998"
   id="rect196" />
			
				<rect
   x="182.10001"
   y="266.39999"
   transform="matrix(0.9953,-0.09732814,0.09732814,0.9953,-25.0607,19.9377)"
   class="st3"
   width="19.4"
   height="0.89999998"
   id="rect198" />
			
				<rect
   x="204.10001"
   y="264.79999"
   transform="matrix(0.9953,-0.09732744,0.09732744,0.9953,-24.8281,21.5155)"
   class="st3"
   width="8"
   height="0.89999998"
   id="rect200" />
			
				<rect
   x="213.2"
   y="263.89999"
   transform="matrix(0.9953,-0.09732744,0.09732744,0.9953,-24.6984,22.3958)"
   class="st3"
   width="8"
   height="0.89999998"
   id="rect202" />
			
				<rect
   x="222.5"
   y="263"
   transform="matrix(0.9953,-0.09732864,0.09732864,0.9953,-24.5691,23.2764)"
   class="st3"
   width="7.5999999"
   height="0.89999998"
   id="rect204" />
			
				<rect
   x="231.39999"
   y="262.10001"
   transform="matrix(0.9953,-0.09732744,0.09732744,0.9953,-24.4392,24.1563)"
   class="st3"
   width="8"
   height="0.89999998"
   id="rect206" />
			
				<rect
   x="240.5"
   y="261.29999"
   transform="matrix(0.9953,-0.09732776,0.09732776,0.9953,-24.3112,25.0259)"
   class="st3"
   width="7.8000002"
   height="0.89999998"
   id="rect208" />
			
				<rect
   x="249.8"
   y="260.39999"
   transform="matrix(0.9953,-0.09732864,0.09732864,0.9953,-24.1802,25.9172)"
   class="st3"
   width="7.5999999"
   height="0.89999998"
   id="rect210" />
			
				<rect
   x="258.60001"
   y="259.5"
   transform="matrix(0.9953,-0.09732744,0.09732744,0.9953,-24.0503,26.7971)"
   class="st3"
   width="8"
   height="0.89999998"
   id="rect212" />
			
				<rect
   x="203.10001"
   y="272.89999"
   transform="matrix(0.9953,-0.09732828,0.09732828,0.9953,-25.603,21.915)"
   class="st3"
   width="17.4"
   height="0.89999998"
   id="rect214" />
			
				<rect
   x="223.8"
   y="270.89999"
   transform="matrix(0.9953,-0.09732805,0.09732805,0.9953,-25.3089,23.9116)"
   class="st3"
   width="17.4"
   height="0.89999998"
   id="rect216" />
			
				<rect
   x="243.89999"
   y="269"
   transform="matrix(0.9953,-0.09732828,0.09732828,0.9953,-25.0212,25.8654)"
   class="st3"
   width="17.4"
   height="0.89999998"
   id="rect218" />
			
				<rect
   x="191.5"
   y="281.79999"
   transform="matrix(0.9953,-0.09732796,0.09732796,0.9953,-26.4836,21.595)"
   class="st3"
   width="33.200001"
   height="0.89999998"
   id="rect220" />
			
				<rect
   x="256.5"
   y="276.5"
   transform="matrix(0.9953,-0.0973305,0.0973305,0.9953,-25.7064,26.8772)"
   class="st3"
   width="12.2"
   height="0.89999998"
   id="rect222" />
		</g>
		<path
   class="st5"
   d="m 268,84.3 c -0.2,-0.9 -0.9,-1.1 -1.6,-1 l -3.6,0.7 c -0.9,0.2 -0.3,1.8 0.2,3.9 0.2,0.6 0.6,0.9 1.4,0.7 3.1,-0.7 4.6,4.3 0.9,5.1 -2.4,0.5 -3.3,-1.2 -3.9,-3.6 -1.1,-4.7 -1.8,-5.3 -2.8,-5.1 l -2.7,0.6 c -1,0.2 -0.8,1.3 -0.4,3.1 0.2,1.1 0.4,1.6 1,1.5 3.6,-0.8 4.6,4.2 1.1,5 -2.2,0.5 -3.3,-1.8 -3.2,-3.7 -0.1,-0.6 0.3,-0.8 0.2,-1.5 -0.5,-2.4 -1.2,-3.8 -2.5,-3.5 l -4.4,0.9 0.8,3.5 c 0.1,0.6 0.5,0.9 1.1,0.8 3.1,-0.7 4.5,4.3 0.2,5.3 -1.4,0.3 -3,-0.4 -3.6,-2.2 -0.6,-2.5 0.6,-2.8 0.4,-4.6 -0.5,-1.8 -1.4,-2 -2.2,-1.9 l -3.6,0.7 c -0.9,0.2 -0.3,1.8 0.2,3.9 0.2,0.6 0.6,0.9 1.4,0.7 3.1,-0.7 4.6,4.3 0.9,5.1 -2.4,0.5 -3.3,-1.2 -3.9,-3.6 -1.1,-4.7 -1.8,-5.3 -2.8,-5.1 l -2.7,0.6 c -1,0.2 -0.8,1.3 -0.4,3.1 0.2,1.1 0.4,1.6 1,1.5 3.6,-0.8 4.6,4.2 1.1,5 -2.2,0.5 -3.3,-1.8 -3.2,-3.7 -0.1,-0.6 0.3,-0.8 0.2,-1.5 -0.5,-2.4 -1.2,-3.8 -2.5,-3.5 l -4.4,0.9 0.8,3.5 c 0.1,0.6 0.5,0.9 1.1,0.8 3.1,-0.7 4.3,4.4 0.8,5.2 -2.7,0.6 -3.5,-1.9 -4.1,-4.5 l -0.9,-3.7 c -0.3,-0.4 -0.5,-0.5 -0.9,-0.4 l -3.6,0.7 c -0.9,0.2 -0.3,1.8 0.2,3.9 0.2,0.6 0.6,0.9 1.4,0.7 3.1,-0.7 4.6,4.3 0.9,5.1 -2.4,0.5 -3.3,-1.2 -3.9,-3.6 -1.1,-4.7 -1.8,-5.3 -2.8,-5.1 l -2.7,0.6 c -1,0.2 -0.8,1.3 -0.4,3.1 0.2,1.1 0.4,1.6 1,1.5 3.6,-0.8 4.6,4.2 1.1,5 -2.2,0.5 -3.3,-1.8 -3.2,-3.7 -0.1,-0.6 0.3,-0.8 0.2,-1.5 -0.5,-2.4 -1.2,-3.8 -2.5,-3.5 l -4.4,0.9 0.8,3.5 c 0.1,0.6 0.5,0.9 1.1,0.8 3.1,-0.7 4.5,4.3 0.2,5.3 -1.4,0.3 -3,-0.4 -3.6,-2.2 -0.6,-2.5 0.6,-2.8 0.4,-4.6 -0.5,-1.8 -1.4,-2 -2.2,-1.9 l -3.6,0.7 c -0.9,0.2 -0.3,1.8 0.2,3.9 0.2,0.6 0.6,0.9 1.4,0.7 3.1,-0.7 4.6,4.3 0.9,5.1 -2.4,0.5 -3.3,-1.2 -3.9,-3.6 -1.1,-4.7 -1.8,-5.3 -2.8,-5.1 l -2.7,0.6 c -1,0.2 -0.8,1.3 -0.4,3.1 0.2,1.1 0.4,1.6 1,1.5 3.6,-0.8 4.6,4.2 1.1,5 -2.2,0.5 -3.3,-1.8 -3.2,-3.7 -0.1,-0.6 0.3,-0.8 0.2,-1.5 -0.5,-2.4 -1.2,-3.8 -2.5,-3.5 l -4.4,0.9 0.8,3.5 c 0.1,0.6 0.5,0.9 1.1,0.8 3.1,-0.7 4.5,4.3 0.2,5.3 -2.4,0.5 -3.1,-2.2 -2.5,-4.8 0.1,-1.2 -0.1,-2.1 -0.6,-2.8 -0.8,-0.9 -1.4,-1.3 -2.5,-1.1 l -3.6,0.7 c -0.9,0.2 -0.3,1.8 0.2,3.9 0.2,0.6 0.6,0.9 1.4,0.7 3.1,-0.7 4.6,4.3 0.9,5.1 -2.4,0.5 -3.3,-1.2 -3.9,-3.6 -1.1,-4.7 -1.8,-5.3 -2.8,-5.1 l -2.7,0.6 c -1,0.2 -0.8,1.3 -0.4,3.1 0.2,1.1 0.4,1.6 1,1.5 3.6,-0.8 4.6,4.2 1.1,5 -2.2,0.5 -3.3,-1.8 -3.2,-3.7 -0.1,-0.6 0.3,-0.8 0.2,-1.5 -0.5,-2.4 -1.2,-3.8 -2.5,-3.5 l -4.4,0.9 0.8,3.5 c 0.1,0.6 0.5,0.9 1.1,0.8 3.1,-0.7 4.5,4.3 0.2,5.3 -1.4,0.3 -3,-0.4 -3.6,-2.2 -0.6,-2.5 0.6,-2.8 0.4,-4.6 -0.5,-1.8 -1.4,-2 -2.2,-1.9 l -3.6,0.7 c -0.9,0.2 -0.3,1.8 0.2,3.9 0.2,0.6 0.6,0.9 1.4,0.7 3.1,-0.7 4.6,4.3 0.9,5.1 -2.4,0.5 -3.3,-1.2 -3.9,-3.6 -1.1,-4.7 -1.8,-5.3 -2.8,-5.1 l -2.7,0.6 c -1,0.2 -0.8,1.3 -0.4,3.1 0.2,1.1 0.4,1.6 1,1.5 3.6,-0.8 4.6,4.2 1.1,5 -2.2,0.5 -3.3,-1.8 -3.2,-3.7 -0.1,-0.6 0.3,-0.8 0.2,-1.5 -0.5,-2.4 -1.2,-3.8 -2.5,-3.5 l -4.4,0.9 0.8,3.5 c 0.1,0.6 0.5,0.9 1.1,0.8 3.1,-0.7 4.5,4.3 0.2,5.3 -0.7,0.2 -1.5,0.8 -1.5,1.4 0,0.3 0,0.6 -0.1,1 l 38.4,169 132.1,-30 -38.4,-169 v 0 c -0.6,-3.2 -1.4,-6.7 -2.2,-10.1 z"
   id="path226" />
		
			<rect
   x="169.89999"
   y="166.5"
   transform="matrix(0.9752,-0.2214,0.2214,0.9752,-32.6486,42.6622)"
   class="st3"
   width="8.1999998"
   height="0.89999998"
   id="rect228" />
		
			<rect
   x="182"
   y="163.8"
   transform="matrix(0.9752,-0.2214,0.2214,0.9752,-31.7321,45.2965)"
   class="st3"
   width="8.3999996"
   height="0.89999998"
   id="rect230" />
		
			<rect
   x="194.5"
   y="161"
   transform="matrix(0.9752,-0.2214,0.2214,0.9752,-30.8021,47.969)"
   class="st3"
   width="8.1999998"
   height="0.89999998"
   id="rect232" />
		
			<rect
   x="206.8"
   y="158.2"
   transform="matrix(0.9752,-0.2214,0.2214,0.9752,-29.879,50.6229)"
   class="st3"
   width="8.1999998"
   height="0.89999998"
   id="rect234" />
		
			<rect
   x="219.3"
   y="155.39999"
   transform="matrix(0.9752,-0.2214,0.2214,0.9752,-28.9492,53.2957)"
   class="st3"
   width="8"
   height="0.89999998"
   id="rect236" />
		
			<rect
   x="178.60001"
   y="170.3"
   transform="matrix(0.9752,-0.2214,0.2214,0.9752,-32.9025,47.8809)"
   class="st3"
   width="37.099998"
   height="0.89999998"
   id="rect238" />
		
			<rect
   x="222.3"
   y="160.39999"
   transform="matrix(0.9752,-0.2214,0.2214,0.9752,-29.6244,57.3028)"
   class="st3"
   width="37.099998"
   height="0.89999998"
   id="rect240" />
		
			<rect
   x="173.60001"
   y="182.60001"
   transform="matrix(0.9752,-0.2213,0.2213,0.9752,-36.0006,44.7978)"
   class="st3"
   width="16.5"
   height="0.89999998"
   id="rect242" />
		
			<rect
   x="191.60001"
   y="178.39999"
   transform="matrix(0.9752,-0.2214,0.2214,0.9752,-34.6362,48.7209)"
   class="st3"
   width="16.799999"
   height="0.89999998"
   id="rect244" />
		
			<rect
   x="220.5"
   y="171.89999"
   transform="matrix(0.9752,-0.2214,0.2214,0.9752,-32.469,54.9516)"
   class="st3"
   width="16.799999"
   height="0.89999998"
   id="rect246" />
		
			<rect
   x="239.10001"
   y="167.7"
   transform="matrix(0.9752,-0.2214,0.2214,0.9752,-31.0908,58.9125)"
   class="st3"
   width="16.5"
   height="0.89999998"
   id="rect248" />
		
			<rect
   x="197.10001"
   y="187.39999"
   transform="matrix(0.9752,-0.2214,0.2214,0.9752,-36.6227,48.9595)"
   class="st3"
   width="6"
   height="0.89999998"
   id="rect250" />
		
			<rect
   x="206.60001"
   y="185.3"
   transform="matrix(0.9752,-0.2214,0.2214,0.9752,-35.9069,51.017)"
   class="st3"
   width="6.1999998"
   height="0.89999998"
   id="rect252" />
		
			<rect
   x="216.39999"
   y="183.10001"
   transform="matrix(0.9752,-0.2214,0.2214,0.9752,-35.178,53.1133)"
   class="st3"
   width="6"
   height="0.89999998"
   id="rect254" />
		
			<rect
   x="226.2"
   y="180.8"
   transform="matrix(0.9752,-0.2214,0.2214,0.9752,-34.4419,55.2281)"
   class="st3"
   width="6"
   height="0.89999998"
   id="rect256" />
		
			<rect
   x="236"
   y="178.60001"
   transform="matrix(0.9752,-0.2214,0.2214,0.9752,-33.6993,57.3625)"
   class="st3"
   width="6.1999998"
   height="0.89999998"
   id="rect258" />
		
			<rect
   x="245.60001"
   y="176.39999"
   transform="matrix(0.9752,-0.2214,0.2214,0.9752,-32.97,59.458)"
   class="st3"
   width="6.4000001"
   height="0.89999998"
   id="rect260" />
		
			<rect
   x="255.39999"
   y="174.2"
   transform="matrix(0.9752,-0.2214,0.2214,0.9752,-32.2478,61.5356)"
   class="st3"
   width="6"
   height="0.89999998"
   id="rect262" />
		<rect
   x="265.20001"
   y="172"
   transform="matrix(0.9752,-0.2214,0.2214,0.9752,-31.5118,63.6503)"
   class="st3"
   width="6"
   height="0.89999998"
   id="rect264" />
		
			<rect
   x="177.3"
   y="198.2"
   transform="matrix(0.9752,-0.2214,0.2214,0.9752,-39.2197,47.3195)"
   class="st3"
   width="28.299999"
   height="0.89999998"
   id="rect266" />
		
			<rect
   x="207.3"
   y="191.39999"
   transform="matrix(0.9752,-0.2214,0.2214,0.9752,-36.972,53.7804)"
   class="st3"
   width="28.299999"
   height="0.89999998"
   id="rect268" />
		
			<rect
   x="237.60001"
   y="184.5"
   transform="matrix(0.9752,-0.2214,0.2214,0.9752,-34.7042,60.299)"
   class="st3"
   width="28.200001"
   height="0.89999998"
   id="rect270" />
		
			<rect
   x="179.39999"
   y="208.2"
   transform="matrix(0.9752,-0.2214,0.2214,0.9752,-41.6057,46.0369)"
   class="st3"
   width="10.4"
   height="0.89999998"
   id="rect272" />
		
			<rect
   x="193.3"
   y="205"
   transform="matrix(0.9752,-0.2214,0.2214,0.9752,-40.5621,49.0366)"
   class="st3"
   width="10.4"
   height="0.89999998"
   id="rect274" />
		
			<rect
   x="207.39999"
   y="201.8"
   transform="matrix(0.9752,-0.2214,0.2214,0.9752,-39.4983,52.0937)"
   class="st3"
   width="10.6"
   height="0.89999998"
   id="rect276" />
		
			<rect
   x="221.3"
   y="198.7"
   transform="matrix(0.9752,-0.2214,0.2214,0.9752,-38.4548,55.0934)"
   class="st3"
   width="10.6"
   height="0.89999998"
   id="rect278" />
		
			<rect
   x="242.7"
   y="193.8"
   transform="matrix(0.9752,-0.2214,0.2214,0.9752,-36.8629,59.6704)"
   class="st3"
   width="10.2"
   height="0.89999998"
   id="rect280" />
		
			<rect
   x="256.79999"
   y="190.7"
   transform="matrix(0.9752,-0.2214,0.2214,0.9752,-35.8058,62.7082)"
   class="st3"
   width="10.2"
   height="0.89999998"
   id="rect282" />
		
			<rect
   x="181.3"
   y="215.89999"
   transform="matrix(0.9752,-0.2214,0.2214,0.9752,-43.1625,47.6349)"
   class="st3"
   width="19.4"
   height="0.89999998"
   id="rect284" />
		
			<rect
   x="217.8"
   y="207.60001"
   transform="matrix(0.9752,-0.2214,0.2214,0.9752,-40.4133,55.5384)"
   class="st3"
   width="19.6"
   height="0.89999998"
   id="rect286" />
		
			<rect
   x="254"
   y="199.39999"
   transform="matrix(0.9752,-0.2214,0.2214,0.9752,-37.6834,63.3829)"
   class="st3"
   width="19.9"
   height="0.89999998"
   id="rect288" />
		
			<rect
   x="205.10001"
   y="217.8"
   transform="matrix(0.9752,-0.2214,0.2214,0.9752,-42.8377,54.269)"
   class="st3"
   width="31.299999"
   height="0.89999998"
   id="rect290" />
		
			<rect
   x="241.8"
   y="209.39999"
   transform="matrix(0.9752,-0.2214,0.2214,0.9752,-40.0749,62.2105)"
   class="st3"
   width="31.4"
   height="0.89999998"
   id="rect292" />
		
			<rect
   x="201.5"
   y="224.60001"
   transform="matrix(0.9752,-0.2214,0.2214,0.9752,-44.0933,56.732)"
   class="st3"
   width="59"
   height="0.89999998"
   id="rect294" />
		
			<rect
   x="208.5"
   y="237.10001"
   transform="matrix(0.9752,-0.2214,0.2214,0.9752,-47.2244,53.6179)"
   class="st3"
   width="14.3"
   height="0.69999999"
   id="rect296" />
		
			<rect
   x="225.39999"
   y="233.3"
   transform="matrix(0.9752,-0.2214,0.2214,0.9752,-45.9534,57.2714)"
   class="st3"
   width="14.3"
   height="0.69999999"
   id="rect298" />
		
			<rect
   x="242.39999"
   y="229.5"
   transform="matrix(0.9752,-0.2214,0.2214,0.9752,-44.6824,60.9248)"
   class="st3"
   width="14.3"
   height="0.69999999"
   id="rect300" />
		
			<rect
   x="259.29999"
   y="225.60001"
   transform="matrix(0.9752,-0.2214,0.2214,0.9752,-43.4113,64.5783)"
   class="st3"
   width="14.3"
   height="0.69999999"
   id="rect302" />
		
			<rect
   x="191.8"
   y="245.89999"
   transform="matrix(0.9752,-0.2214,0.2214,0.9752,-49.165,53.9266)"
   class="st3"
   width="48.400002"
   height="0.89999998"
   id="rect304" />
		
			<rect
   x="241.5"
   y="237.10001"
   transform="matrix(0.9752,-0.2214,0.2214,0.9752,-46.2751,62.2336)"
   class="st3"
   width="26.1"
   height="0.89999998"
   id="rect306" />
		
			<rect
   x="200.7"
   y="256.10001"
   transform="matrix(0.9752,-0.2214,0.2214,0.9752,-51.5603,52.9277)"
   class="st3"
   width="19.4"
   height="0.69999999"
   id="rect308" />
		
			<rect
   x="222.39999"
   y="252.5"
   transform="matrix(0.9752,-0.2214,0.2214,0.9752,-50.3562,56.3888)"
   class="st3"
   width="8"
   height="0.69999999"
   id="rect310" />
		
			<rect
   x="231.3"
   y="250.5"
   transform="matrix(0.9752,-0.2214,0.2214,0.9752,-49.6944,58.2932)"
   class="st3"
   width="7.9000001"
   height="0.69999999"
   id="rect312" />
		
			<rect
   x="240.39999"
   y="248.5"
   transform="matrix(0.9752,-0.2214,0.2214,0.9752,-49.0254,60.2162)"
   class="st3"
   width="7.5"
   height="0.69999999"
   id="rect314" />
		
			<rect
   x="248.89999"
   y="246.5"
   transform="matrix(0.9752,-0.2214,0.2214,0.9752,-48.3626,62.119)"
   class="st3"
   width="8"
   height="0.69999999"
   id="rect316" />
		
			<rect
   x="257.89999"
   y="244.5"
   transform="matrix(0.9752,-0.2214,0.2214,0.9752,-47.7006,64.0231)"
   class="st3"
   width="7.9000001"
   height="0.69999999"
   id="rect318" />
		
			<rect
   x="267.10001"
   y="242.39999"
   transform="matrix(0.9752,-0.2214,0.2214,0.9752,-47.0187,65.9853)"
   class="st3"
   width="7.5"
   height="0.69999999"
   id="rect320" />
		
			<rect
   x="275.70001"
   y="240.39999"
   transform="matrix(0.9752,-0.2214,0.2214,0.9752,-46.3559,67.8881)"
   class="st3"
   width="8"
   height="0.69999999"
   id="rect322" />
		
			<rect
   x="222.39999"
   y="260.10001"
   transform="matrix(0.9752,-0.2214,0.2214,0.9752,-51.9371,57.6071)"
   class="st3"
   width="17.4"
   height="0.89999998"
   id="rect324" />
		
			<rect
   x="242.5"
   y="255.5"
   transform="matrix(0.9752,-0.2214,0.2214,0.9752,-50.4251,61.9526)"
   class="st3"
   width="17.4"
   height="0.89999998"
   id="rect326" />
		
			<rect
   x="262.29999"
   y="251"
   transform="matrix(0.9752,-0.2214,0.2214,0.9752,-48.94,66.2214)"
   class="st3"
   width="17.4"
   height="0.89999998"
   id="rect328" />
		
			<rect
   x="211.89999"
   y="269.29999"
   transform="matrix(0.9752,-0.2214,0.2214,0.9752,-54.0404,57.2608)"
   class="st3"
   width="33.099998"
   height="0.89999998"
   id="rect330" />
		
			<rect
   x="275.79999"
   y="257.10001"
   transform="matrix(0.9752,-0.2214,0.2214,0.9752,-50.0273,68.7994)"
   class="st3"
   width="12.2"
   height="0.89999998"
   id="rect332" />
		<path
   class="st6"
   d="m 136.3,136.6 c -0.5,0 -0.4,0.7 0,0.7 l 19.3,-0.5 c 4.7,-0.2 4.1,-6.5 -0.3,-6.3 l -23.3,0.6 c -4.5,0.2 -5.1,7.6 0.3,7.4 l 5.7,-0.2 -0.1,-0.7 -5.3,0.2 c -4.7,0.2 -4.4,-5.9 -0.2,-6 l 22.3,-0.6 c 4.3,-0.2 4.8,4.8 0.2,5 z"
   id="path334" />
	</g>
	<path
   class="st7"
   d="m 394.7,194.6 c 0.3,-1 -0.2,-1.6 -1,-1.9 l -3.9,-1.3 c -1,-0.3 -1.3,1.6 -2,3.8 -0.2,0.7 0.1,1.2 0.9,1.5 3.3,1 2.1,6.7 -2,5.4 -2.6,-0.8 -2.6,-3 -1.7,-5.7 1.6,-5.1 1.2,-6.1 0.1,-6.5 l -3,-0.9 c -1,-0.3 -1.5,0.8 -2.1,2.8 -0.4,1.2 -0.5,1.8 0.1,2 4,1.2 2.1,6.6 -1.7,5.4 -2.4,-0.7 -2.2,-3.6 -1.1,-5.4 0.2,-0.6 0.8,-0.6 1,-1.4 0.8,-2.6 0.9,-4.4 -0.4,-4.8 l -4.7,-1.6 -1.2,3.9 c -0.3,0.7 -0.1,1.1 0.6,1.4 3.3,1 2,6.7 -2.8,5.2 -1.5,-0.5 -2.7,-2 -2.2,-4.2 0.8,-2.8 2.2,-2.4 3,-4.2 0.6,-2 -0.2,-2.7 -1.1,-3 l -3.9,-1.3 c -1,-0.3 -1.3,1.6 -2,3.8 -0.2,0.7 0.1,1.2 0.9,1.5 3.3,1 2.1,6.7 -2,5.4 -2.6,-0.8 -2.6,-3 -1.7,-5.7 1.6,-5.1 1.2,-6.1 0.1,-6.5 l -3,-0.9 c -1,-0.3 -1.5,0.8 -2.1,2.8 -0.4,1.2 -0.5,1.8 0.1,2 4,1.2 2.1,6.6 -1.7,5.4 -2.4,-0.7 -2.2,-3.6 -1.1,-5.4 0.2,-0.6 0.8,-0.6 1,-1.4 0.8,-2.6 0.9,-4.4 -0.4,-4.8 l -4.7,-1.6 -1.2,3.9 c -0.3,0.7 -0.1,1.1 0.6,1.4 3.3,1 1.8,6.6 -2.1,5.5 -2.9,-0.9 -2.3,-3.8 -1.4,-6.6 l 1.3,-4.1 c 0,-0.5 -0.3,-0.8 -0.6,-0.9 l -3.9,-1.3 c -1,-0.3 -1.3,1.6 -2,3.8 -0.2,0.7 0.1,1.2 0.9,1.5 3.3,1 2.1,6.7 -2,5.4 -2.6,-0.8 -2.6,-3 -1.7,-5.7 1.6,-5.1 1.2,-6.1 0.1,-6.5 l -2.9,-0.9 c -1,-0.3 -1.5,0.8 -2.1,2.8 -0.4,1.2 -0.5,1.8 0.1,2 4,1.2 2.1,6.6 -1.7,5.4 -2.4,-0.7 -2.2,-3.6 -1.1,-5.4 0.2,-0.6 0.8,-0.6 1,-1.4 0.8,-2.6 0.9,-4.4 -0.4,-4.8 l -4.7,-1.6 -1.2,3.9 c -0.3,0.7 -0.1,1.1 0.6,1.4 3.3,1 2,6.7 -2.8,5.2 -1.5,-0.5 -2.7,-2 -2.2,-4.2 0.8,-2.8 2.2,-2.4 3,-4.2 0.6,-2 -0.2,-2.7 -1.1,-3 l -3.9,-1.3 c -1,-0.3 -1.3,1.6 -2,3.8 -0.2,0.7 0.1,1.2 0.9,1.5 3.3,1 2.1,6.7 -2,5.4 -2.6,-0.8 -2.6,-3 -1.7,-5.7 1.6,-5.1 1.2,-6.1 0.1,-6.5 l -2.9,-0.9 c -1,-0.3 -1.5,0.8 -2.1,2.8 -0.4,1.2 -0.5,1.8 0.1,2 4,1.2 2.1,6.6 -1.7,5.4 -2.4,-0.7 -2.2,-3.6 -1.1,-5.4 0.2,-0.6 0.8,-0.6 1,-1.4 0.8,-2.6 0.9,-4.4 -0.4,-4.8 l -4.7,-1.6 -1.2,3.9 c -0.3,0.7 -0.1,1.1 0.6,1.4 3.3,1 2,6.7 -2.8,5.2 -2.6,-0.8 -1.8,-3.8 0.2,-6 0.8,-1.1 1.1,-2.1 1,-3 -0.2,-1.3 -0.6,-2 -1.8,-2.5 l -3.9,-1.3 c -1,-0.3 -1.3,1.6 -2,3.8 -0.2,0.7 0.1,1.2 0.9,1.5 3.3,1 2.1,6.7 -2,5.4 -2.6,-0.8 -2.6,-3 -1.7,-5.7 1.6,-5.1 1.2,-6.1 0.1,-6.5 l -2.9,-0.9 c -1,-0.3 -1.5,0.8 -2.1,2.8 -0.4,1.2 -0.5,1.8 0.1,2 4,1.2 2.1,6.6 -1.7,5.4 -2.4,-0.7 -2.2,-3.6 -1.1,-5.4 0.2,-0.6 0.8,-0.6 1,-1.4 0.8,-2.6 0.9,-4.4 -0.4,-4.8 l -4.7,-1.6 -1.2,3.9 c -0.3,0.7 -0.1,1.1 0.6,1.4 3.3,1 2,6.7 -2.8,5.2 -1.5,-0.5 -2.7,-2 -2.2,-4.2 0.8,-2.8 2.2,-2.4 3,-4.2 0.6,-2 -0.2,-2.7 -1.1,-3 l -3.9,-1.3 c -1,-0.3 -1.3,1.6 -2,3.8 -0.2,0.7 0.1,1.2 0.9,1.5 3.3,1 2.1,6.7 -2,5.4 -2.6,-0.8 -2.6,-3 -1.7,-5.7 1.6,-5.1 1.2,-6.1 0.1,-6.5 l -2.9,-0.9 c -1,-0.3 -1.5,0.8 -2.1,2.8 -0.4,1.2 -0.5,1.8 0.1,2 4,1.2 2.1,6.6 -1.7,5.4 -2.4,-0.7 -2.2,-3.6 -1.1,-5.4 0.2,-0.6 0.8,-0.6 1,-1.4 0.8,-2.6 0.9,-4.4 -0.4,-4.8 l -4.7,-1.6 -1.2,3.9 c -0.3,0.7 -0.1,1.1 0.6,1.4 3.3,1 2,6.7 -2.8,5.2 -0.8,-0.2 -1.9,-0.1 -2.2,0.5 -0.2,0.3 -0.3,0.6 -0.6,0.9 L 189.2,344.8 333.7,389.5 391.1,206 v 0 c 1.3,-3.9 2.5,-7.7 3.6,-11.4 z"
   id="path338" />
	
		<rect
   x="257.20001"
   y="217.5"
   transform="matrix(0.2958,-0.9552,0.9552,0.2958,-30.794,402.5697)"
   class="st3"
   width="0.89999998"
   height="9.3000002"
   id="rect340" />
	
		<rect
   x="270.5"
   y="221.7"
   transform="matrix(0.2958,-0.9552,0.9552,0.2958,-25.3797,418.1272)"
   class="st3"
   width="0.89999998"
   height="9.3000002"
   id="rect342" />
	
		<rect
   x="284.20001"
   y="225.89999"
   transform="matrix(0.2958,-0.9552,0.9552,0.2958,-19.7937,434.1782)"
   class="st3"
   width="0.89999998"
   height="9.3000002"
   id="rect344" />
	
		<rect
   x="297.60001"
   y="230.10001"
   transform="matrix(0.2958,-0.9552,0.9552,0.2958,-14.2938,449.9822)"
   class="st3"
   width="0.89999998"
   height="9.3000002"
   id="rect346" />
	<rect
   x="311"
   y="234.3"
   transform="matrix(0.2958,-0.9552,0.9552,0.2958,-8.8368,465.6627)"
   class="st3"
   width="0.89999998"
   height="9"
   id="rect348" />
	
		<rect
   x="277.5"
   y="217.89999"
   transform="matrix(0.2958,-0.9552,0.9552,0.2958,-32.2056,433.515)"
   class="st3"
   width="0.89999998"
   height="41.400002"
   id="rect350" />
	
		<rect
   x="325.29999"
   y="232.7"
   transform="matrix(0.2958,-0.9552,0.9552,0.2958,-12.6977,489.5699)"
   class="st3"
   width="0.89999998"
   height="41.400002"
   id="rect352" />
	
		<rect
   x="255.89999"
   y="232.8"
   transform="matrix(0.2958,-0.9552,0.9552,0.2958,-50.7193,415.3188)"
   class="st3"
   width="0.89999998"
   height="18.5"
   id="rect354" />
	
		<rect
   x="275.79999"
   y="238.89999"
   transform="matrix(0.2958,-0.9552,0.9552,0.2958,-42.5982,438.6545)"
   class="st3"
   width="0.89999998"
   height="18.700001"
   id="rect356" />
	
		<rect
   x="307.39999"
   y="248.60001"
   transform="matrix(0.2958,-0.9552,0.9552,0.2958,-29.7075,475.6952)"
   class="st3"
   width="0.89999998"
   height="18.700001"
   id="rect358" />
	
		<rect
   x="327.5"
   y="255"
   transform="matrix(0.2958,-0.9552,0.9552,0.2958,-21.5003,499.278)"
   class="st3"
   width="0.89999998"
   height="18.5"
   id="rect360" />
	
		<rect
   x="270.70001"
   y="253.5"
   transform="matrix(0.2958,-0.9552,0.9552,0.2958,-54.3666,439.8414)"
   class="st3"
   width="0.89999998"
   height="6.5999999"
   id="rect362" />
	
		<rect
   x="281.29999"
   y="256.70001"
   transform="matrix(0.2958,-0.9552,0.9552,0.2958,-50.0256,452.3138)"
   class="st3"
   width="0.89999998"
   height="6.8000002"
   id="rect364" />
	
		<rect
   x="291.89999"
   y="259.89999"
   transform="matrix(0.2958,-0.9552,0.9552,0.2958,-45.7299,464.6588)"
   class="st3"
   width="0.89999998"
   height="6.8000002"
   id="rect366" />
	
		<rect
   x="302.60001"
   y="263.29999"
   transform="matrix(0.2958,-0.9552,0.9552,0.2958,-41.3471,477.2526)"
   class="st3"
   width="0.89999998"
   height="6.8000002"
   id="rect368" />
	
		<rect
   x="313.39999"
   y="266.5"
   transform="matrix(0.2958,-0.9552,0.9552,0.2958,-36.92,489.972)"
   class="st3"
   width="0.89999998"
   height="7.0999999"
   id="rect370" />
	
		<rect
   x="324.10001"
   y="269.89999"
   transform="matrix(0.2958,-0.9552,0.9552,0.2958,-32.5802,502.4423)"
   class="st3"
   width="0.89999998"
   height="6.8000002"
   id="rect372" />
	
		<rect
   x="334.70001"
   y="273.29999"
   transform="matrix(0.2958,-0.9552,0.9552,0.2958,-28.2399,514.9133)"
   class="st3"
   width="0.89999998"
   height="6.5999999"
   id="rect374" />
	
		<rect
   x="345.29999"
   y="276.5"
   transform="matrix(0.2958,-0.9552,0.9552,0.2958,-23.9004,527.3831)"
   class="st3"
   width="0.89999998"
   height="6.8000002"
   id="rect376" />
	
		<rect
   x="256.5"
   y="246.7"
   transform="matrix(0.2958,-0.9552,0.9552,0.2958,-69.8719,430.2893)"
   class="st3"
   width="0.89999998"
   height="31.700001"
   id="rect378" />
	
		<rect
   x="289.20001"
   y="256.89999"
   transform="matrix(0.2958,-0.9552,0.9552,0.2958,-56.5085,468.6883)"
   class="st3"
   width="0.89999998"
   height="31.5"
   id="rect380" />
	
		<rect
   x="322.20001"
   y="267.20001"
   transform="matrix(0.2958,-0.9552,0.9552,0.2958,-43.0163,507.4574)"
   class="st3"
   width="0.89999998"
   height="31.5"
   id="rect382" />
	
		<rect
   x="244.10001"
   y="262.5"
   transform="matrix(0.2958,-0.9552,0.9552,0.2958,-84.0299,422.6202)"
   class="st3"
   width="1.1"
   height="11.7"
   id="rect384" />
	
		<rect
   x="259.29999"
   y="267.10001"
   transform="matrix(0.2958,-0.9552,0.9552,0.2958,-77.7993,440.5233)"
   class="st3"
   width="1.1"
   height="11.9"
   id="rect386" />
	
		<rect
   x="274.79999"
   y="272"
   transform="matrix(0.2958,-0.9552,0.9552,0.2958,-71.4831,458.6728)"
   class="st3"
   width="1.1"
   height="11.7"
   id="rect388" />
	
		<rect
   x="290"
   y="276.70001"
   transform="matrix(0.2958,-0.9552,0.9552,0.2958,-65.2954,476.4527)"
   class="st3"
   width="1.1"
   height="11.7"
   id="rect390" />
	
		<rect
   x="313.20001"
   y="284"
   transform="matrix(0.2958,-0.9552,0.9552,0.2958,-55.7995,503.7389)"
   class="st3"
   width="1.1"
   height="11.5"
   id="rect392" />
	
		<rect
   x="328.60001"
   y="288.70001"
   transform="matrix(0.2958,-0.9552,0.9552,0.2958,-49.525,521.7672)"
   class="st3"
   width="1.1"
   height="11.5"
   id="rect394" />
	
		<rect
   x="246"
   y="268.60001"
   transform="matrix(0.2958,-0.9552,0.9552,0.2958,-93.3322,432.0859)"
   class="st3"
   width="0.89999998"
   height="21.6"
   id="rect396" />
	
		<rect
   x="286.10001"
   y="280.89999"
   transform="matrix(0.2958,-0.9552,0.9552,0.2958,-76.9611,479.1276)"
   class="st3"
   width="0.89999998"
   height="21.799999"
   id="rect398" />
	
		<rect
   x="325.79999"
   y="293"
   transform="matrix(0.2958,-0.9552,0.9552,0.2958,-60.7188,525.7989)"
   class="st3"
   width="0.89999998"
   height="22.299999"
   id="rect400" />
	
		<rect
   x="273.60001"
   y="280.29999"
   transform="matrix(0.2958,-0.9552,0.9552,0.2958,-91.3659,471.5447)"
   class="st3"
   width="1.1"
   height="34.799999"
   id="rect402" />
	
		<rect
   x="313.89999"
   y="292.70001"
   transform="matrix(0.2958,-0.9552,0.9552,0.2958,-74.9088,518.8334)"
   class="st3"
   width="1.1"
   height="35"
   id="rect404" />
	
		<rect
   x="279.89999"
   y="277.20001"
   transform="matrix(0.2958,-0.9552,0.9552,0.2958,-98.8633,486.1966)"
   class="st3"
   width="0.89999998"
   height="65.900002"
   id="rect406" />
	
		<rect
   x="258"
   y="305.60001"
   transform="matrix(0.2958,-0.9552,0.9552,0.2958,-117.5059,467.6302)"
   class="st3"
   width="0.89999998"
   height="15.9"
   id="rect408" />
	
		<rect
   x="276.5"
   y="311.29999"
   transform="matrix(0.2958,-0.9552,0.9552,0.2958,-109.9433,489.3607)"
   class="st3"
   width="0.89999998"
   height="15.9"
   id="rect410" />
	
		<rect
   x="295"
   y="317.10001"
   transform="matrix(0.2958,-0.9552,0.9552,0.2958,-102.381,511.0909)"
   class="st3"
   width="0.89999998"
   height="15.9"
   id="rect412" />
	
		<rect
   x="313.60001"
   y="322.79999"
   transform="matrix(0.2958,-0.9552,0.9552,0.2958,-94.8184,532.8215)"
   class="st3"
   width="0.89999998"
   height="15.9"
   id="rect414" />
	
		<rect
   x="253.5"
   y="295.29999"
   transform="matrix(0.2958,-0.9552,0.9552,0.2958,-129.0157,469.5594)"
   class="st3"
   width="0.89999998"
   height="54"
   id="rect416" />
	
		<rect
   x="295.60001"
   y="320.70001"
   transform="matrix(0.2958,-0.9552,0.9552,0.2958,-111.828,518.9472)"
   class="st3"
   width="0.89999998"
   height="29.299999"
   id="rect418" />
	
		<rect
   x="242.39999"
   y="318.20001"
   transform="matrix(0.2958,-0.9552,0.9552,0.2958,-143.2754,463.5868)"
   class="st3"
   width="0.89999998"
   height="21.6"
   id="rect420" />
	
		<rect
   x="259.79999"
   y="330"
   transform="matrix(0.2958,-0.9552,0.9552,0.2958,-136.1429,484.0818)"
   class="st3"
   width="0.89999998"
   height="8.8000002"
   id="rect422" />
	
		<rect
   x="269.60001"
   y="332.89999"
   transform="matrix(0.2958,-0.9552,0.9552,0.2958,-132.1468,495.5645)"
   class="st3"
   width="0.89999998"
   height="9"
   id="rect424" />
	
		<rect
   x="279.29999"
   y="336.10001"
   transform="matrix(0.2958,-0.9552,0.9552,0.2958,-128.1929,506.9254)"
   class="st3"
   width="0.89999998"
   height="8.6000004"
   id="rect426" />
	
		<rect
   x="289.10001"
   y="339"
   transform="matrix(0.2958,-0.9552,0.9552,0.2958,-124.1976,518.4061)"
   class="st3"
   width="0.89999998"
   height="8.8000002"
   id="rect428" />
	
		<rect
   x="298.70001"
   y="342.10001"
   transform="matrix(0.2958,-0.9552,0.9552,0.2958,-120.2874,529.6417)"
   class="st3"
   width="0.89999998"
   height="8.6000004"
   id="rect430" />
	
		<rect
   x="308.60001"
   y="345.20001"
   transform="matrix(0.2958,-0.9552,0.9552,0.2958,-116.2472,541.2504)"
   class="st3"
   width="0.89999998"
   height="8.6000004"
   id="rect432" />
	
		<rect
   x="318.29999"
   y="348.10001"
   transform="matrix(0.2958,-0.9552,0.9552,0.2958,-112.252,552.7311)"
   class="st3"
   width="0.89999998"
   height="8.8000002"
   id="rect434" />
	
		<rect
   x="260.20001"
   y="334.70001"
   transform="matrix(0.2958,-0.9552,0.9552,0.2958,-145.472,491.4818)"
   class="st3"
   width="0.89999998"
   height="19.4"
   id="rect436" />
	
		<rect
   x="282.29999"
   y="341.60001"
   transform="matrix(0.2958,-0.9552,0.9552,0.2958,-136.4485,517.4102)"
   class="st3"
   width="0.89999998"
   height="19.4"
   id="rect438" />
	
		<rect
   x="303.89999"
   y="348.10001"
   transform="matrix(0.2958,-0.9552,0.9552,0.2958,-127.6399,542.7214)"
   class="st3"
   width="0.89999998"
   height="19.6"
   id="rect440" />
	
		<rect
   x="252.5"
   y="333.5"
   transform="matrix(0.2958,-0.9552,0.9552,0.2958,-158.0668,489.4977)"
   class="st3"
   width="0.89999998"
   height="37"
   id="rect442" />
	
		<rect
   x="310.79999"
   y="363.20001"
   transform="matrix(0.2958,-0.9552,0.9552,0.2958,-134.2618,557.8999)"
   class="st3"
   width="0.89999998"
   height="13.7"
   id="rect444" />
	<g
   id="g774">
		<path
   class="st8"
   d="M 350.5,396.3 H 107.2 v -92.7 c 0,-6.7 5.4,-12.1 12.1,-12.1 h 219 c 6.7,0 12.1,5.4 12.1,12.1 v 92.7 z"
   id="path446" />
		<g
   id="g476">
			<path
   class="st9"
   d="m 125.2,308.7 h -13.8 v -2.6 c 0,-2.3 1.9,-4.3 4.3,-4.3 h 5.3 c 2.3,0 4.3,1.9 4.3,4.3 v 2.6 z"
   id="path448" />
			<path
   class="st9"
   d="m 142.1,308.7 h -13.8 v -2.6 c 0,-2.3 1.9,-4.3 4.3,-4.3 h 5.3 c 2.3,0 4.3,1.9 4.3,4.3 v 2.6 z"
   id="path450" />
			<path
   class="st9"
   d="m 159.1,308.7 h -13.8 v -2.6 c 0,-2.3 1.9,-4.3 4.3,-4.3 h 5.3 c 2.3,0 4.3,1.9 4.3,4.3 v 2.6 z"
   id="path452" />
			<path
   class="st9"
   d="m 176.1,308.7 h -13.8 v -2.6 c 0,-2.3 1.9,-4.3 4.3,-4.3 h 5.3 c 2.3,0 4.3,1.9 4.3,4.3 v 2.6 z"
   id="path454" />
			<path
   class="st9"
   d="m 193.1,308.7 h -13.8 v -2.6 c 0,-2.3 1.9,-4.3 4.3,-4.3 h 5.3 c 2.3,0 4.3,1.9 4.3,4.3 v 2.6 z"
   id="path456" />
			<path
   class="st9"
   d="m 210.1,308.7 h -13.8 v -2.6 c 0,-2.3 1.9,-4.3 4.3,-4.3 h 5.3 c 2.3,0 4.3,1.9 4.3,4.3 v 2.6 z"
   id="path458" />
			<path
   class="st9"
   d="m 227.1,308.7 h -13.8 v -2.6 c 0,-2.3 1.9,-4.3 4.3,-4.3 h 5.3 c 2.3,0 4.3,1.9 4.3,4.3 v 2.6 z"
   id="path460" />
			<path
   class="st9"
   d="m 244,308.7 h -13.8 v -2.6 c 0,-2.3 1.9,-4.3 4.3,-4.3 h 5.3 c 2.3,0 4.3,1.9 4.3,4.3 v 2.6 z"
   id="path462" />
			<path
   class="st9"
   d="m 261,308.7 h -13.8 v -2.6 c 0,-2.3 1.9,-4.3 4.3,-4.3 h 5.3 c 2.3,0 4.3,1.9 4.3,4.3 v 2.6 z"
   id="path464" />
			<path
   class="st9"
   d="m 278,308.7 h -13.8 v -2.6 c 0,-2.3 1.9,-4.3 4.3,-4.3 h 5.3 c 2.3,0 4.3,1.9 4.3,4.3 v 2.6 z"
   id="path466" />
			<path
   class="st9"
   d="m 295,308.7 h -13.8 v -2.6 c 0,-2.3 1.9,-4.3 4.3,-4.3 h 5.3 c 2.3,0 4.3,1.9 4.3,4.3 v 2.6 z"
   id="path468" />
			<path
   class="st9"
   d="m 312,308.7 h -13.8 v -2.6 c 0,-2.3 1.9,-4.3 4.3,-4.3 h 5.3 c 2.3,0 4.3,1.9 4.3,4.3 v 2.6 z"
   id="path470" />
			<path
   class="st9"
   d="m 329,308.7 h -13.8 v -2.6 c 0,-2.3 1.9,-4.3 4.3,-4.3 h 5.3 c 2.3,0 4.3,1.9 4.3,4.3 v 2.6 z"
   id="path472" />
			<path
   class="st9"
   d="m 345.9,308.7 h -13.8 v -2.6 c 0,-2.3 1.9,-4.3 4.3,-4.3 h 5.3 c 2.3,0 4.3,1.9 4.3,4.3 v 2.6 z"
   id="path474" />
		</g>
		<g
   id="g500">
			<rect
   x="111.8"
   y="378.10001"
   class="st9"
   width="13.8"
   height="12.5"
   id="rect478" />
			<rect
   x="128.3"
   y="378.10001"
   class="st9"
   width="13.8"
   height="12.5"
   id="rect480" />
			<rect
   x="145.3"
   y="378.10001"
   class="st9"
   width="13.8"
   height="12.5"
   id="rect482" />
			<rect
   x="162.3"
   y="378.10001"
   class="st9"
   width="13.8"
   height="12.5"
   id="rect484" />
			<rect
   x="179.89999"
   y="378.10001"
   class="st9"
   width="81.699997"
   height="12.5"
   id="rect486" />
			<rect
   x="265.39999"
   y="378.10001"
   class="st9"
   width="17.299999"
   height="12.5"
   id="rect488" />
			<rect
   x="286.10001"
   y="378.10001"
   class="st9"
   width="13.8"
   height="12.5"
   id="rect490" />
			<path
   class="st9"
   d="m 315.4,390.6 h -12.9 v -4.1 c 0,-1.4 1.1,-2.5 2.5,-2.5 h 7.9 c 1.4,0 2.5,1.1 2.5,2.5 z"
   id="path492" />
			<path
   class="st9"
   d="m 331.1,383.3 h -13.8 v -2.5 c 0,-1.5 1.2,-2.8 2.8,-2.8 h 8.3 c 1.5,0 2.8,1.2 2.8,2.8 v 2.5 z"
   id="path494" />
			<rect
   x="317.29999"
   y="385.10001"
   class="st9"
   width="13.8"
   height="5.5"
   id="rect496" />
			<path
   class="st9"
   d="m 345.9,390.6 h -13 V 387 c 0,-1.6 1.3,-3 3,-3 h 7 c 1.6,0 3,1.3 3,3 z"
   id="path498" />
		</g>
		<g
   id="g526">
			<rect
   x="143.7"
   y="361.29999"
   class="st9"
   width="13.8"
   height="12.5"
   id="rect502" />
			<rect
   x="160.3"
   y="361.29999"
   class="st9"
   width="13.8"
   height="12.5"
   id="rect504" />
			<rect
   x="177"
   y="361.29999"
   class="st9"
   width="13.8"
   height="12.5"
   id="rect506" />
			<rect
   x="193.60001"
   y="361.29999"
   class="st9"
   width="13.8"
   height="12.5"
   id="rect508" />
			<rect
   x="210.2"
   y="361.29999"
   class="st9"
   width="13.8"
   height="12.5"
   id="rect510" />
			<rect
   x="226.8"
   y="361.29999"
   class="st9"
   width="13.8"
   height="12.5"
   id="rect512" />
			<rect
   x="243.5"
   y="361.29999"
   class="st9"
   width="13.8"
   height="12.5"
   id="rect514" />
			<rect
   x="260.10001"
   y="361.29999"
   class="st9"
   width="13.8"
   height="12.5"
   id="rect516" />
			<rect
   x="276.70001"
   y="361.29999"
   class="st9"
   width="13.8"
   height="12.5"
   id="rect518" />
			<rect
   x="293.39999"
   y="361.29999"
   class="st9"
   width="13.8"
   height="12.5"
   id="rect520" />
			<rect
   x="310"
   y="361.29999"
   class="st9"
   width="36"
   height="12.5"
   id="rect522" />
			<rect
   x="111.7"
   y="361.29999"
   class="st9"
   width="28.299999"
   height="12.5"
   id="rect524" />
		</g>
		<g
   id="g554">
			<rect
   x="111.3"
   y="313"
   class="st9"
   width="13.8"
   height="12.5"
   id="rect528" />
			<rect
   x="128.3"
   y="313"
   class="st9"
   width="13.8"
   height="12.5"
   id="rect530" />
			<rect
   x="145.3"
   y="313"
   class="st9"
   width="13.8"
   height="12.5"
   id="rect532" />
			<rect
   x="162.3"
   y="313"
   class="st9"
   width="13.8"
   height="12.5"
   id="rect534" />
			<rect
   x="179.3"
   y="313"
   class="st9"
   width="13.8"
   height="12.5"
   id="rect536" />
			<rect
   x="196.2"
   y="313"
   class="st9"
   width="13.8"
   height="12.5"
   id="rect538" />
			<rect
   x="213.2"
   y="313"
   class="st9"
   width="13.8"
   height="12.5"
   id="rect540" />
			<rect
   x="230.2"
   y="313"
   class="st9"
   width="13.8"
   height="12.5"
   id="rect542" />
			<rect
   x="247.2"
   y="313"
   class="st9"
   width="13.8"
   height="12.5"
   id="rect544" />
			<rect
   x="264.20001"
   y="313"
   class="st9"
   width="13.8"
   height="12.5"
   id="rect546" />
			<rect
   x="281.20001"
   y="313"
   class="st9"
   width="13.8"
   height="12.5"
   id="rect548" />
			<rect
   x="298.10001"
   y="313"
   class="st9"
   width="13.8"
   height="12.5"
   id="rect550" />
			<rect
   x="315.10001"
   y="313"
   class="st9"
   width="30.799999"
   height="12.5"
   id="rect552" />
		</g>
		<g
   id="g582">
			<rect
   x="136.8"
   y="328.89999"
   class="st9"
   width="13.8"
   height="12.5"
   id="rect556" />
			<rect
   x="153.39999"
   y="328.89999"
   class="st9"
   width="13.8"
   height="12.5"
   id="rect558" />
			<rect
   x="170"
   y="328.89999"
   class="st9"
   width="13.8"
   height="12.5"
   id="rect560" />
			<rect
   x="186.7"
   y="328.89999"
   class="st9"
   width="13.8"
   height="12.5"
   id="rect562" />
			<rect
   x="203.3"
   y="328.89999"
   class="st9"
   width="13.8"
   height="12.5"
   id="rect564" />
			<rect
   x="219.89999"
   y="328.89999"
   class="st9"
   width="13.8"
   height="12.5"
   id="rect566" />
			<rect
   x="236.60001"
   y="328.89999"
   class="st9"
   width="13.8"
   height="12.5"
   id="rect568" />
			<rect
   x="253.2"
   y="328.89999"
   class="st9"
   width="13.8"
   height="12.5"
   id="rect570" />
			<rect
   x="269.79999"
   y="328.89999"
   class="st9"
   width="13.8"
   height="12.5"
   id="rect572" />
			<rect
   x="286.39999"
   y="328.89999"
   class="st9"
   width="13.8"
   height="12.5"
   id="rect574" />
			<rect
   x="303.10001"
   y="328.89999"
   class="st9"
   width="13.8"
   height="12.5"
   id="rect576" />
			<rect
   x="320.29999"
   y="328.89999"
   class="st9"
   width="25.6"
   height="12.5"
   id="rect578" />
			<rect
   x="111.3"
   y="329"
   class="st9"
   width="22.1"
   height="12.3"
   id="rect580" />
		</g>
		<g
   id="g610">
			<rect
   x="140.8"
   y="344.79999"
   class="st9"
   width="13.8"
   height="12.5"
   id="rect584" />
			<rect
   x="157.60001"
   y="344.79999"
   class="st9"
   width="13.8"
   height="12.5"
   id="rect586" />
			<rect
   x="174.3"
   y="344.79999"
   class="st9"
   width="13.8"
   height="12.5"
   id="rect588" />
			<rect
   x="191"
   y="344.79999"
   class="st9"
   width="13.8"
   height="12.5"
   id="rect590" />
			<rect
   x="207.7"
   y="344.79999"
   class="st9"
   width="13.8"
   height="12.5"
   id="rect592" />
			<rect
   x="224.39999"
   y="344.79999"
   class="st9"
   width="13.8"
   height="12.5"
   id="rect594" />
			<rect
   x="241.10001"
   y="344.79999"
   class="st9"
   width="13.8"
   height="12.5"
   id="rect596" />
			<rect
   x="257.89999"
   y="344.79999"
   class="st9"
   width="13.8"
   height="12.5"
   id="rect598" />
			<rect
   x="274.60001"
   y="344.79999"
   class="st9"
   width="13.8"
   height="12.5"
   id="rect600" />
			<rect
   x="291.29999"
   y="344.79999"
   class="st9"
   width="13.8"
   height="12.5"
   id="rect602" />
			<rect
   x="308"
   y="344.79999"
   class="st9"
   width="13.8"
   height="12.5"
   id="rect604" />
			<rect
   x="324.60001"
   y="344.79999"
   class="st9"
   width="21.4"
   height="12.5"
   id="rect606" />
			<rect
   x="111.3"
   y="344.79999"
   class="st9"
   width="26.6"
   height="12.4"
   id="rect608" />
		</g>
		<g
   id="g630">
			<rect
   x="111.8"
   y="389.79999"
   class="st10"
   width="13.8"
   height="0.69999999"
   id="rect612" />
			<rect
   x="128.3"
   y="389.79999"
   class="st10"
   width="13.8"
   height="0.69999999"
   id="rect614" />
			<rect
   x="145.3"
   y="389.79999"
   class="st10"
   width="13.8"
   height="0.69999999"
   id="rect616" />
			<rect
   x="162.3"
   y="389.79999"
   class="st10"
   width="13.8"
   height="0.69999999"
   id="rect618" />
			<rect
   x="286.10001"
   y="389.79999"
   class="st10"
   width="13.8"
   height="0.69999999"
   id="rect620" />
			<rect
   x="302.5"
   y="389.79999"
   class="st10"
   width="12.9"
   height="0.69999999"
   id="rect622" />
			<rect
   x="333"
   y="389.79999"
   class="st10"
   width="12.9"
   height="0.69999999"
   id="rect624" />
			<rect
   x="317.29999"
   y="389.79999"
   class="st10"
   width="13.8"
   height="0.69999999"
   id="rect626" />
			<rect
   x="265.39999"
   y="389.79999"
   class="st10"
   width="17.299999"
   height="0.69999999"
   id="rect628" />
		</g>
		<g
   id="g656">
			<rect
   x="111.7"
   y="373"
   class="st10"
   width="28.299999"
   height="0.80000001"
   id="rect632" />
			<rect
   x="143.7"
   y="373"
   class="st10"
   width="13.8"
   height="0.69999999"
   id="rect634" />
			<rect
   x="160.3"
   y="373"
   class="st10"
   width="13.8"
   height="0.69999999"
   id="rect636" />
			<rect
   x="177"
   y="373"
   class="st10"
   width="13.8"
   height="0.69999999"
   id="rect638" />
			<rect
   x="193.60001"
   y="373"
   class="st10"
   width="13.8"
   height="0.69999999"
   id="rect640" />
			<rect
   x="210.2"
   y="373"
   class="st10"
   width="13.8"
   height="0.69999999"
   id="rect642" />
			<rect
   x="226.8"
   y="373"
   class="st10"
   width="13.8"
   height="0.69999999"
   id="rect644" />
			<rect
   x="243.5"
   y="373"
   class="st10"
   width="13.8"
   height="0.69999999"
   id="rect646" />
			<rect
   x="260.10001"
   y="373"
   class="st10"
   width="13.8"
   height="0.69999999"
   id="rect648" />
			<rect
   x="276.70001"
   y="373"
   class="st10"
   width="13.8"
   height="0.69999999"
   id="rect650" />
			<rect
   x="293.39999"
   y="373"
   class="st10"
   width="13.8"
   height="0.69999999"
   id="rect652" />
			<rect
   x="310"
   y="373"
   class="st10"
   width="36"
   height="0.69999999"
   id="rect654" />
		</g>
		<g
   id="g684">
			<rect
   x="111.3"
   y="356.39999"
   class="st10"
   width="26.6"
   height="0.80000001"
   id="rect658" />
			<rect
   x="140.8"
   y="356.5"
   class="st10"
   width="13.8"
   height="0.69999999"
   id="rect660" />
			<rect
   x="157.60001"
   y="356.5"
   class="st10"
   width="13.8"
   height="0.69999999"
   id="rect662" />
			<rect
   x="174.3"
   y="356.5"
   class="st10"
   width="13.8"
   height="0.69999999"
   id="rect664" />
			<rect
   x="191"
   y="356.5"
   class="st10"
   width="13.8"
   height="0.69999999"
   id="rect666" />
			<rect
   x="207.7"
   y="356.5"
   class="st10"
   width="13.8"
   height="0.69999999"
   id="rect668" />
			<rect
   x="224.39999"
   y="356.5"
   class="st10"
   width="13.8"
   height="0.69999999"
   id="rect670" />
			<rect
   x="241.10001"
   y="356.5"
   class="st10"
   width="13.8"
   height="0.69999999"
   id="rect672" />
			<rect
   x="257.89999"
   y="356.5"
   class="st10"
   width="13.8"
   height="0.69999999"
   id="rect674" />
			<rect
   x="274.60001"
   y="356.5"
   class="st10"
   width="13.8"
   height="0.69999999"
   id="rect676" />
			<rect
   x="291.29999"
   y="356.5"
   class="st10"
   width="13.8"
   height="0.69999999"
   id="rect678" />
			<rect
   x="308"
   y="356.5"
   class="st10"
   width="13.8"
   height="0.69999999"
   id="rect680" />
			<rect
   x="324.60001"
   y="356.5"
   class="st10"
   width="21.4"
   height="0.69999999"
   id="rect682" />
		</g>
		<g
   id="g712">
			<rect
   x="111.3"
   y="340.60001"
   class="st10"
   width="22.1"
   height="0.80000001"
   id="rect686" />
			<rect
   x="136.8"
   y="340.60001"
   class="st10"
   width="13.8"
   height="0.69999999"
   id="rect688" />
			<rect
   x="153.39999"
   y="340.60001"
   class="st10"
   width="13.8"
   height="0.69999999"
   id="rect690" />
			<rect
   x="170"
   y="340.60001"
   class="st10"
   width="13.8"
   height="0.69999999"
   id="rect692" />
			<rect
   x="186.7"
   y="340.60001"
   class="st10"
   width="13.8"
   height="0.69999999"
   id="rect694" />
			<rect
   x="203.3"
   y="340.60001"
   class="st10"
   width="13.8"
   height="0.69999999"
   id="rect696" />
			<rect
   x="219.89999"
   y="340.60001"
   class="st10"
   width="13.8"
   height="0.69999999"
   id="rect698" />
			<rect
   x="236.60001"
   y="340.60001"
   class="st10"
   width="13.8"
   height="0.69999999"
   id="rect700" />
			<rect
   x="253.2"
   y="340.60001"
   class="st10"
   width="13.8"
   height="0.69999999"
   id="rect702" />
			<rect
   x="269.79999"
   y="340.60001"
   class="st10"
   width="13.8"
   height="0.69999999"
   id="rect704" />
			<rect
   x="286.39999"
   y="340.60001"
   class="st10"
   width="13.8"
   height="0.69999999"
   id="rect706" />
			<rect
   x="303.10001"
   y="340.60001"
   class="st10"
   width="13.8"
   height="0.69999999"
   id="rect708" />
			<rect
   x="320.29999"
   y="340.60001"
   class="st10"
   width="25.6"
   height="0.69999999"
   id="rect710" />
		</g>
		<g
   id="g740">
			<rect
   x="111.3"
   y="324.70001"
   class="st10"
   width="13.8"
   height="0.69999999"
   id="rect714" />
			<rect
   x="128.3"
   y="324.70001"
   class="st10"
   width="13.8"
   height="0.69999999"
   id="rect716" />
			<rect
   x="145.3"
   y="324.70001"
   class="st10"
   width="13.8"
   height="0.69999999"
   id="rect718" />
			<rect
   x="162.3"
   y="324.70001"
   class="st10"
   width="13.8"
   height="0.69999999"
   id="rect720" />
			<rect
   x="179.3"
   y="324.70001"
   class="st10"
   width="13.8"
   height="0.69999999"
   id="rect722" />
			<rect
   x="196.2"
   y="324.70001"
   class="st10"
   width="13.8"
   height="0.69999999"
   id="rect724" />
			<rect
   x="213.2"
   y="324.70001"
   class="st10"
   width="13.8"
   height="0.69999999"
   id="rect726" />
			<rect
   x="230.2"
   y="324.70001"
   class="st10"
   width="13.8"
   height="0.69999999"
   id="rect728" />
			<rect
   x="247.2"
   y="324.70001"
   class="st10"
   width="13.8"
   height="0.69999999"
   id="rect730" />
			<rect
   x="264.20001"
   y="324.70001"
   class="st10"
   width="13.8"
   height="0.69999999"
   id="rect732" />
			<rect
   x="281.20001"
   y="324.70001"
   class="st10"
   width="13.8"
   height="0.69999999"
   id="rect734" />
			<rect
   x="298.10001"
   y="324.70001"
   class="st10"
   width="13.8"
   height="0.69999999"
   id="rect736" />
			<rect
   x="315.10001"
   y="324.70001"
   class="st10"
   width="30.799999"
   height="0.69999999"
   id="rect738" />
		</g>
		<g
   id="g770">
			<rect
   x="111.3"
   y="308"
   class="st10"
   width="13.8"
   height="0.69999999"
   id="rect742" />
			<rect
   x="128.3"
   y="308"
   class="st10"
   width="13.8"
   height="0.69999999"
   id="rect744" />
			<rect
   x="145.3"
   y="308"
   class="st10"
   width="13.8"
   height="0.69999999"
   id="rect746" />
			<rect
   x="162.3"
   y="308"
   class="st10"
   width="13.8"
   height="0.69999999"
   id="rect748" />
			<rect
   x="179.3"
   y="308"
   class="st10"
   width="13.8"
   height="0.69999999"
   id="rect750" />
			<rect
   x="196.2"
   y="308"
   class="st10"
   width="13.8"
   height="0.69999999"
   id="rect752" />
			<rect
   x="213.2"
   y="308"
   class="st10"
   width="13.8"
   height="0.69999999"
   id="rect754" />
			<rect
   x="230.2"
   y="308"
   class="st10"
   width="13.8"
   height="0.69999999"
   id="rect756" />
			<rect
   x="247.2"
   y="308"
   class="st10"
   width="13.8"
   height="0.69999999"
   id="rect758" />
			<rect
   x="264.20001"
   y="308"
   class="st10"
   width="13.8"
   height="0.69999999"
   id="rect760" />
			<rect
   x="281.20001"
   y="308"
   class="st10"
   width="13.8"
   height="0.69999999"
   id="rect762" />
			<rect
   x="298.10001"
   y="308"
   class="st10"
   width="13.8"
   height="0.69999999"
   id="rect764" />
			<rect
   x="315.10001"
   y="308"
   class="st10"
   width="13.8"
   height="0.69999999"
   id="rect766" />
			<rect
   x="332.10001"
   y="308"
   class="st10"
   width="13.8"
   height="0.69999999"
   id="rect768" />
		</g>
		<rect
   x="107.2"
   y="396.29999"
   class="st10"
   width="243.3"
   height="1.6"
   id="rect772" />
	</g>
	<path
   class="st11"
   d="m 430.7,322 c -0.1,18.2 -15,33.1 -33.2,33 h -8.3 c -5.6,0 -11,-1.5 -15.6,-4 -3.3,-1.8 -6.2,-4.1 -8.7,-6.8 -5.4,-5.9 -8.7,-13.8 -8.7,-22.4 l 0.1,-35.7 v 0 -2 h -0.1 l 0.1,-24.3 c 0.1,-17.8 14.7,-32.2 32.4,-32.2 h 3.5 v 0 h 2.8 2.1 0.7 0.8 c 6,0 11.5,1.7 16.3,4.5 0,0 0,0 0,0 1.5,0.9 3,1.9 4.3,3.1 7,5.9 11.4,14.8 11.4,24.6 z"
   id="path776" />
	<path
   class="st12"
   d="m 399.1,245 -0.1,21.9 c 0,0.4 -0.1,0.8 -0.2,1.2 0,0.1 -0.1,0.2 -0.1,0.3 0,0.1 -0.1,0.2 -0.1,0.3 0,0 0,0.1 -0.1,0.1 0,0.1 -0.1,0.2 -0.1,0.2 0,0 0,0.1 -0.1,0.1 0,0.1 -0.1,0.2 -0.1,0.2 -0.1,0.2 -0.2,0.4 -0.3,0.6 -0.1,0.1 -0.2,0.3 -0.3,0.4 -0.1,0.1 -0.1,0.1 -0.2,0.2 -0.7,0.7 -1.5,1.3 -2.5,1.6 -0.5,0.1 -1,0.2 -1.5,0.2 -0.4,0 -0.8,0 -1.2,-0.1 -2.5,-0.5 -4.3,-2.7 -4.3,-5.4 L 388,245 c 0,-2.6 1.9,-4.8 4.3,-5.3 0.4,-0.1 0.8,-0.1 1.2,-0.1 0.5,0 1.1,0.1 1.5,0.2 1,0.3 1.8,0.8 2.5,1.6 0.1,0.1 0.1,0.1 0.2,0.2 0.1,0.1 0.2,0.3 0.3,0.4 0.1,0.2 0.2,0.4 0.3,0.6 0,0.1 0.1,0.2 0.1,0.2 0,0 0,0.1 0.1,0.1 0,0.1 0.1,0.2 0.1,0.2 0,0 0,0.1 0,0.1 0,0.1 0.1,0.2 0.1,0.3 0,0.1 0.1,0.2 0.1,0.3 0.2,0.4 0.3,0.8 0.3,1.2 z"
   id="path778" />
	<path
   class="st13"
   d="m 430.7,322 c -0.1,18.2 -15,33.1 -33.2,33 h -8.3 c -5.6,0 -11,-1.5 -15.6,-4 l 45.1,-113.6 0.8,-2 c 7,5.9 11.4,14.8 11.4,24.6 z"
   id="path780" />
</g>
<rect
   style="fill:#b7ff51;fill-opacity:0"
   id="rect1648"
   width="116.76993"
   height="275.70679"
   x="5.181201"
   y="55.387695" /><rect
   style="fill:#b7ff51;fill-opacity:0"
   id="rect1650"
   width="12.974437"
   height="2.4327068"
   x="-6.9823313"
   y="104.85274" /><rect
   style="fill:#b7ff51;fill-opacity:0"
   id="rect1652"
   width="317.06277"
   height="257.05603"
   x="-22.389473"
   y="-4.6190739" /></svg>
