<?xml version="1.0" encoding="utf-8"?>
<!-- Generator: Adobe Illustrator 25.0.0, SVG Export Plug-In . SVG Version: 6.00 Build 0)  -->
<svg version="1.1"
	 id="Layer_1" xmlns:cc="http://creativecommons.org/ns#" xmlns:dc="http://purl.org/dc/elements/1.1/" xmlns:inkscape="http://www.inkscape.org/namespaces/inkscape" xmlns:rdf="http://www.w3.org/1999/02/22-rdf-syntax-ns#" xmlns:sodipodi="http://sodipodi.sourceforge.net/DTD/sodipodi-0.dtd" xmlns:svg="http://www.w3.org/2000/svg"
	 xmlns="http://www.w3.org/2000/svg" xmlns:xlink="http://www.w3.org/1999/xlink" x="0px" y="0px" viewBox="0 0 337.8 369.5"
	 style="enable-background:new 0 0 337.8 369.5;" xml:space="preserve">
<style type="text/css">
	.st0{fill:#A8B9CC;}
</style>
<sodipodi:namedview  bordercolor="#666666" borderopacity="1" fit-margin-bottom="10" fit-margin-left="10" fit-margin-right="10" fit-margin-top="10" gridtolerance="10" guidetolerance="10" id="namedview183" inkscape:current-layer="Layer_1" inkscape:cx="379.46728" inkscape:cy="381.15368" inkscape:pageopacity="0" inkscape:pageshadow="2" inkscape:window-height="974" inkscape:window-maximized="1" inkscape:window-width="1280" inkscape:window-x="0" inkscape:window-y="0" inkscape:zoom="0.5" objecttolerance="10" pagecolor="#ffffff" showgrid="false">
	</sodipodi:namedview>
<path id="path3" inkscape:connector-curvature="0" class="st0" d="M239.6,141.6c0,0-5.4-50.8-55.8-52.2s-76.3,38.1-76.3,94.5
	s28.6,101.6,77.6,101.6c49,0,54.5-56.4,54.5-56.4l94,5.6c0,0,5.5,51-33.8,89.8c-39.3,38.9-87.6,45.2-121.3,45
	c-33.7-0.3-80.4,0.5-125.6-45.8S0,232.5,0,188.3c0-44.2,8.6-102.7,62.3-147C98.8,11.1,135.8,0,172.8,0
	c154.6,0,164.9,142.5,164.9,142.5L239.6,141.6z"/>
</svg>
